<svg xmlns="http://www.w3.org/2000/svg" viewBox="0 0 100 100"><defs><style>.cls-1{fill:#070808;}.cls-2{fill:#3fed9c;}.cls-3{fill:#3d3e3f;}.cls-4{fill:#fdfdfd;}</style></defs><g id="Layer_2" data-name="Layer 2"><g id="Layer_1-2" data-name="Layer 1"><path class="cls-1" d="M42.49,19.79a14.56,14.56,0,0,0-.36-3.08,18.81,18.81,0,0,0-1.27-4,18.25,18.25,0,0,0-1.35-2.5,25.53,25.53,0,0,0-2.23-2.94,22.54,22.54,0,0,0-4.07-3.61,23.32,23.32,0,0,0-3-1.76A18.62,18.62,0,0,0,25.8.42,22.91,22.91,0,0,0,23.47.09,8.92,8.92,0,0,0,22.31,0a3.46,3.46,0,0,1-.46,0,2,2,0,0,0-.42,0H20.6a15.36,15.36,0,0,0-2.7.21,19.64,19.64,0,0,0-2.61.58,20,20,0,0,0-3.41,1.34A22.17,22.17,0,0,0,7.94,4.72a22.54,22.54,0,0,0-2.1,1.93A21,21,0,0,0,3.29,9.89a21.4,21.4,0,0,0-1.65,3.19,20.17,20.17,0,0,0-1.25,4.3,19.17,19.17,0,0,0-.25,2c0,.39-.05.78-.08,1.17s0,.72,0,1.08a.92.92,0,0,1,0,.29,1.63,1.63,0,0,0,0,.44c0,.38,0,.76.07,1.14s.12,1,.21,1.47a19.09,19.09,0,0,0,.78,3A21.47,21.47,0,0,0,2.4,31a20.4,20.4,0,0,0,2.13,3.22c.32.4.66.78,1,1.15s.57.59.86.88a22.17,22.17,0,0,0,2.89,2.4,20.28,20.28,0,0,0,2.65,1.57,19.49,19.49,0,0,0,4.87,1.67,19,19,0,0,0,2.38.35c.45,0,.91.08,1.37.1,0,0,.08,0,.09,0H22s0,0,.09,0l.62,0A19,19,0,0,0,24.87,42a20.24,20.24,0,0,0,3.41-.85,20.51,20.51,0,0,0,4.4-2.12,19.74,19.74,0,0,0,2.57-2,21.76,21.76,0,0,0,3.15-3.56,24,24,0,0,0,1.81-3,20.75,20.75,0,0,0,1.86-5c.15-.66.26-1.33.35-2,0-.43.06-.86.08-1.29,0,0,0-.08,0-.11V20S42.49,19.85,42.49,19.79Zm-2.89,2.6a15.65,15.65,0,0,1-.24,1.93c-.06.32-.13.64-.21.95a16.16,16.16,0,0,1-.83,2.49,18.35,18.35,0,0,1-3.09,5,19.89,19.89,0,0,1-4.16,3.61,18.73,18.73,0,0,1-5.39,2.39,16.94,16.94,0,0,1-2.65.49c-.48,0-1,.07-1.45.09a14.76,14.76,0,0,1-1.49,0,17.48,17.48,0,0,1-6.33-1.6A18.82,18.82,0,0,1,9.81,35.2,19.39,19.39,0,0,1,8,33.43a18.63,18.63,0,0,1-2.49-3.36,19.7,19.7,0,0,1-1.09-2.21,17.56,17.56,0,0,1-.9-2.74A19.48,19.48,0,0,1,3.1,23,15.47,15.47,0,0,1,3,20.42a15.92,15.92,0,0,1,.29-2.58A17.9,17.9,0,0,1,4,15.23,19.54,19.54,0,0,1,5.19,12.5,18.82,18.82,0,0,1,7.4,9.32a13,13,0,0,1,1-1.09,18.61,18.61,0,0,1,3.07-2.46A18,18,0,0,1,15.23,4a17.64,17.64,0,0,1,3-.79A17.25,17.25,0,0,1,20,3c.45,0,.89-.05,1.34-.05a18,18,0,0,1,9.8,2.92A9.64,9.64,0,0,1,32,6.4c.33.26.69.51,1,.79l.86.77c.34.3.64.62.95,1s.4.45.59.68a19.35,19.35,0,0,1,2.08,3.08c.28.55.55,1.11.78,1.69.12.29.21.6.33.89a11.47,11.47,0,0,1,.47,1.51,17.74,17.74,0,0,1,.42,2.29,17.33,17.33,0,0,1,.1,2.33C39.6,21.65,39.61,22,39.6,22.39Z"/><path class="cls-2" d="M39.6,21.38a17.33,17.33,0,0,0-.1-2.33,17.74,17.74,0,0,0-.42-2.29,11.47,11.47,0,0,0-.47-1.51c-.12-.29-.21-.6-.33-.89-.23-.58-.5-1.14-.78-1.69a19.35,19.35,0,0,0-2.08-3.08c-.19-.23-.39-.46-.59-.68s-.61-.65-.95-1L33,7.19c-.32-.28-.68-.53-1-.79a9.64,9.64,0,0,0-.84-.58,17.87,17.87,0,0,0-9.8-2.92c-.45,0-.89,0-1.34.05a17.25,17.25,0,0,0-1.76.21,17.64,17.64,0,0,0-3,.79,18,18,0,0,0-3.75,1.82A18.61,18.61,0,0,0,8.41,8.23a13,13,0,0,0-1,1.09A18.82,18.82,0,0,0,5.19,12.5,19.54,19.54,0,0,0,4,15.23a17.9,17.9,0,0,0-.69,2.61A15.92,15.92,0,0,0,3,20.42,15.47,15.47,0,0,0,3.1,23a19.48,19.48,0,0,0,.37,2.16,17.56,17.56,0,0,0,.9,2.74,19.7,19.7,0,0,0,1.09,2.21A18.63,18.63,0,0,0,8,33.43,19.39,19.39,0,0,0,9.81,35.2a18.82,18.82,0,0,0,3.95,2.47,17.48,17.48,0,0,0,6.33,1.6,14.76,14.76,0,0,0,1.49,0c.48,0,1,0,1.45-.09a16.94,16.94,0,0,0,2.65-.49,18.73,18.73,0,0,0,5.39-2.39,19.89,19.89,0,0,0,4.16-3.61,18.35,18.35,0,0,0,3.09-5,16.16,16.16,0,0,0,.83-2.49c.08-.31.15-.63.21-.95a15.65,15.65,0,0,0,.24-1.93C39.61,22,39.6,21.65,39.6,21.38Zm-1.43,3.1A16.13,16.13,0,0,1,37.35,27a16.68,16.68,0,0,1-1.82,3.18,19.32,19.32,0,0,1-2.19,2.5,17.49,17.49,0,0,1-2.63,2.07c-.4.26-.82.49-1.25.73a15.65,15.65,0,0,1-2.7,1.15,16.33,16.33,0,0,1-3.38.74,19.88,19.88,0,0,1-2.56.15,20.14,20.14,0,0,1-2.19-.15,15.92,15.92,0,0,1-3.07-.62,14.07,14.07,0,0,1-2.72-1.13c-.34-.18-.68-.36-1-.56l-.88-.58L10.27,34c-.28-.21-.53-.46-.79-.69C9,32.88,8.63,32.46,8.23,32A17.45,17.45,0,0,1,6,28.87a15.11,15.11,0,0,1-1.16-2.64c-.1-.3-.17-.61-.27-.92a6.54,6.54,0,0,1-.24-1c0-.37-.12-.73-.16-1.1S4,22.21,4,21.69s0-1-.06-1.41a14.52,14.52,0,0,1,.73-4.46,16.32,16.32,0,0,1,2.66-5A19.55,19.55,0,0,1,8.8,9.1a16.42,16.42,0,0,1,1.93-1.7A16,16,0,0,1,12.83,6a16.77,16.77,0,0,1,2.8-1.18,18,18,0,0,1,3.17-.72C19.41,4.06,20,4,20.64,4s1.13,0,1.69,0A14.68,14.68,0,0,1,26,4.56a19.32,19.32,0,0,1,4.17,1.82,16.47,16.47,0,0,1,1.91,1.3A15.53,15.53,0,0,1,34,9.41a14.89,14.89,0,0,1,1.2,1.43,20.38,20.38,0,0,1,1.89,3.05,15,15,0,0,1,1.28,3.77,16,16,0,0,1,.24,1.69c0,.23,0,.47,0,.7s0,.29,0,.44A16.75,16.75,0,0,1,38.17,24.48Z"/><path class="cls-1" d="M38.62,20.05c0-.23,0-.47,0-.7a16,16,0,0,0-.24-1.69,15,15,0,0,0-1.28-3.77,20.38,20.38,0,0,0-1.89-3.05A14.89,14.89,0,0,0,34,9.41a15.53,15.53,0,0,0-1.9-1.73,16.47,16.47,0,0,0-1.91-1.3A19.32,19.32,0,0,0,26,4.56,14.68,14.68,0,0,0,22.33,4c-.56,0-1.12,0-1.69,0s-1.23.1-1.84.18a18,18,0,0,0-3.17.72A16.77,16.77,0,0,0,12.83,6a16,16,0,0,0-2.1,1.36A16.42,16.42,0,0,0,8.8,9.1a19.55,19.55,0,0,0-1.47,1.69,16.32,16.32,0,0,0-2.66,5,14.52,14.52,0,0,0-.73,4.46c0,.44,0,.92.06,1.41s.1,1,.15,1.55.11.73.16,1.1a6.54,6.54,0,0,0,.24,1c.1.31.17.62.27.92A15.11,15.11,0,0,0,6,28.87,17.45,17.45,0,0,0,8.23,32c.4.43.81.85,1.25,1.24.26.23.51.48.79.69l.67.49.88.58c.34.2.68.38,1,.56a14.07,14.07,0,0,0,2.72,1.13,15.92,15.92,0,0,0,3.07.62,20.14,20.14,0,0,0,2.19.15,19.88,19.88,0,0,0,2.56-.15,16.33,16.33,0,0,0,3.38-.74,15.65,15.65,0,0,0,2.7-1.15c.43-.24.85-.47,1.25-.73a17.49,17.49,0,0,0,2.63-2.07,19.32,19.32,0,0,0,2.19-2.5A16.68,16.68,0,0,0,37.35,27a16.13,16.13,0,0,0,.82-2.49,16.75,16.75,0,0,0,.48-4C38.65,20.34,38.63,20.2,38.62,20.05Zm-5.71-10a.72.72,0,0,1,.35.11c0,.11-.15.07-.17.16s.06.08.11.11,0,0,0,.08a.07.07,0,0,1,0,0,.36.36,0,0,1-.27,0Zm0,.82a.2.2,0,0,1,.23-.16c.12,0,.15,0,.19.17a2.92,2.92,0,0,1,0,.66l-.08,0c-.19,0-.2.06-.2.25a.65.65,0,0,0,.06.3c.28,0,.27-.22.27-.43a.3.3,0,0,1,0,.44.34.34,0,0,1-.41.12A.23.23,0,0,1,32.9,12a2.1,2.1,0,0,0,0-.79A.85.85,0,0,1,32.9,10.91Zm0,1.75c.08-.2.21-.22.36-.07a.51.51,0,0,1,.11.55.09.09,0,0,1-.1.09l-.13,0a.16.16,0,0,0-.11.18.16.16,0,0,0,.16.15h.17a3.71,3.71,0,0,0,.09.5c0,.32-.11.33-.31.29l-.09,0a.33.33,0,0,1,.1-.06.25.25,0,0,0,.15-.34.16.16,0,0,0-.11-.1L33,13.79a.26.26,0,0,1-.18-.21c0-.17,0-.34,0-.51A.82.82,0,0,1,32.88,12.66Zm.3,10.12a.54.54,0,0,1,.18.57c0,.15-.1.2-.26.18a.3.3,0,0,1-.21-.07c0-.48,0-1,0-1.44,0-.12.05-.16.16-.18a.3.3,0,0,1,.32.18.45.45,0,0,1,0,.47.22.22,0,0,1-.17.11.08.08,0,0,0-.09.06C33.09,22.73,33.15,22.74,33.18,22.78Zm-.31-3.39a.56.56,0,0,1,0-.13.26.26,0,0,1,.23-.21.23.23,0,0,1,.21.13.49.49,0,0,1,0,.39l0,0a.47.47,0,0,1-.35,0c-.09,0-.09-.09-.1-.16a.27.27,0,0,1,0-.09Zm.23-.59h0s0,0-.06,0a.11.11,0,0,1-.1,0,1.76,1.76,0,0,1,0-.23c0-.2.09-.27.29-.25l.12,0C33,18.44,33,18.48,33.1,18.8Zm-.19-1.33a.23.23,0,0,1,.19,0c.14,0,.2.05.21.19V18a.45.45,0,0,1-.33.08c-.09,0-.12-.07-.1-.16a.36.36,0,0,1,0-.09C33,17.7,33,17.59,32.91,17.47Zm.47,1.24a0,0,0,0,1,0,0s0,0-.09,0S33.35,18.69,33.38,18.71Zm0-2.69a.42.42,0,0,1,0,.1,1.4,1.4,0,0,0-.19.69.68.68,0,0,1-.07.25A4.34,4.34,0,0,1,33,15.64a.38.38,0,0,1,.18,0A.3.3,0,0,1,33.39,16Zm-.07-.77a.22.22,0,0,1-.39,0,.69.69,0,0,1,0-.56.24.24,0,0,1,.28-.11.2.2,0,0,1,.18.18.82.82,0,0,1,0,.22A.39.39,0,0,1,33.32,15.25Zm-.13,6.41c-.07,0-.11,0-.16,0a3,3,0,0,0-.07-.9,4.39,4.39,0,0,1-.07-.72c0-.18,0-.22.24-.21l.15,0a1.26,1.26,0,0,1,0,.79c0,.22-.09.44-.13.65A1.16,1.16,0,0,0,33.19,21.66ZM30.6,8.11V8c0-.07,0-.14.1-.15s.14,0,.15.16a.57.57,0,0,1,0,.13V9.84a.57.57,0,0,0,.09.39c-.18.08-.18.08-.33,0a.59.59,0,0,1,0-.19Zm-.06,4.53a.72.72,0,0,0,.08-.57,2.53,2.53,0,0,1,0-1l0-.38a.11.11,0,0,1,.1-.12c.08,0,.1.05.11.11v1a.5.5,0,0,0,.22.47l-.12.09a.17.17,0,0,0,0,.24l.15.2c.12.17.1.27-.12.4,0-.17,0-.37-.2-.41a.32.32,0,0,0,0,.52.43.43,0,0,1,.14.55.19.19,0,0,0,0,.18.81.81,0,0,1,.05.87,2.32,2.32,0,0,0-.18,1c0,.1.06.19.07.3a.15.15,0,0,1-.17,0c-.05,0,0-.11,0-.16a6.63,6.63,0,0,0-.1-1.26,2,2,0,0,1,0-.59.83.83,0,0,0-.05-.41A1.23,1.23,0,0,1,30.54,12.64Zm.15,3.76h.11v3.35c-.1,0-.16,0-.16-.13v-.05c0-.79,0-1.57,0-2.36A3.78,3.78,0,0,1,30.69,16.4Zm.06,3.69a4.59,4.59,0,0,1,.1,1.19c-.07.06-.14,0-.21,0A3.2,3.2,0,0,1,30.75,20.09ZM30.4,21.7c0-.11.23-.26.36-.26a.38.38,0,0,1,.35.26.3.3,0,0,1-.14.37.43.43,0,0,0-.15.33.73.73,0,0,0,0,.36.34.34,0,0,1,0,.2.3.3,0,0,1-.29,0c0-.07,0-.13,0-.2a.61.61,0,0,0-.1-.67A.44.44,0,0,1,30.4,21.7ZM29,9.75a.26.26,0,0,1,.07-.15.82.82,0,0,0,.12-.43c0-.66,0-1.31,0-2V7.05c.12-.07.2,0,.3,0a1,1,0,0,0-.12.57c0,.47,0,.94,0,1.42a1.39,1.39,0,0,0,.15.66.59.59,0,0,1-.1.69c-.09.12-.21.11-.29,0A1.07,1.07,0,0,1,29,9.75Zm.07,1a.7.7,0,0,1,.47.13.26.26,0,0,1,.12.3,1.17,1.17,0,0,1-.06.2,1.07,1.07,0,0,0-.12.63.57.57,0,0,1,0,.13.1.1,0,0,1-.12.08.1.1,0,0,1-.09-.1V12a.89.89,0,0,0-.14-.52A.69.69,0,0,1,29.09,10.72Zm.21,10.16c-.17,0-.22-.08-.24-.24a1.28,1.28,0,0,1,0-.19h0a1.08,1.08,0,0,1,0-.18c0-.18.16-.27.33-.18a.45.45,0,0,1,.23.63A.28.28,0,0,1,29.3,20.88Zm0,1a1,1,0,0,1,0-.73A.94.94,0,0,1,29.27,21.86Zm0-8.63c0-.06,0-.13,0-.19a.25.25,0,0,1,.06.2,5.49,5.49,0,0,1,0,.81,1.84,1.84,0,0,0,.23,1,.12.12,0,0,1-.08.06.22.22,0,0,0-.17.24c0,.16,0,.31,0,.46a6.15,6.15,0,0,1,0,1,3.38,3.38,0,0,0,0,.45c-.18,0-.18,0-.19-.11a5.31,5.31,0,0,1,0-.69c0-.24,0-.47,0-.71a1.46,1.46,0,0,0-.12-.5.33.33,0,0,1,0-.24,2.73,2.73,0,0,0,.13-.9A5.9,5.9,0,0,1,29.25,13.23Zm0,4.28c.11.2,0,.42.12.61-.13.08-.15.08-.34,0C29.21,18,29.19,17.73,29.28,17.51Zm0,.81a.23.23,0,0,1,.25.15.47.47,0,0,1,0,.24c0,.27-.12.53-.15.8,0,.1,0,.21,0,.32l-.06,0-.07,0s0,0,0,0a.57.57,0,0,1,0-.13A.69.69,0,0,0,29.1,19a.72.72,0,0,1-.06-.5A.22.22,0,0,1,29.25,18.32Zm-1.47-7.63v1.37l0,.06A2.06,2.06,0,0,1,27.78,10.69Zm-.25,2a.33.33,0,0,1,.35-.17.39.39,0,0,1,.28.33.32.32,0,0,1-.1.31.6.6,0,0,0-.21.55c0,.74,0,1.49,0,2.24,0,.42,0,.85,0,1.28a.44.44,0,0,1,0,.1c-.18,0-.21,0-.2-.14,0-.32,0-.63.07-.95V16c0-.55,0-1.09,0-1.63a3.88,3.88,0,0,1,0-.59,1.38,1.38,0,0,0-.14-.82A.33.33,0,0,1,27.53,12.64Zm.3,8.69c0,.07,0,.12-.12.11a.89.89,0,0,1-.07-.4v-.9a.46.46,0,0,0-.11-.38.32.32,0,0,1,.3,0Zm-.07,1.16a.86.86,0,0,1,0-.75A1.13,1.13,0,0,1,27.76,22.49Zm-.07-4.09c0-.23,0-.45,0-.68,0-.06,0-.12.08-.14v1.67c-.1,0-.08-.07-.09-.12C27.68,18.89,27.68,18.65,27.69,18.4Zm-.06,4.4a.35.35,0,0,1,.56.18s0,0,0,.06v.17c0,.26-.1.38-.31.39a.39.39,0,0,1-.43-.39A.43.43,0,0,1,27.63,22.8ZM25.69,8.47a.33.33,0,0,0,.14-.33V5.88c0-.08,0-.17,0-.25s0-.14.19-.12a.38.38,0,0,1,0,.21c0,.78,0,1.57,0,2.35a1,1,0,0,0,.11.48.3.3,0,0,1,0,.4.25.25,0,0,0-.06.18c0,.62,0,1.23,0,1.84a.79.79,0,0,0,.06.22.36.36,0,0,1-.35,0,.75.75,0,0,0,.09-.41V9.64a2,2,0,0,1,0-.59.14.14,0,0,0-.06-.13l-.12-.09A.24.24,0,0,1,25.69,8.47Zm.36,7.11a.16.16,0,0,1-.16,0,.14.14,0,0,1-.05-.1,4.7,4.7,0,0,1,0-.65,3.7,3.7,0,0,0,0-.94,1.55,1.55,0,0,1,0-.43.41.41,0,0,0-.09-.38.24.24,0,0,1,0-.34,1.07,1.07,0,0,0,.12-.7c0-.14,0-.27,0-.4s0-.17.12-.2.06.2.07.3a10.75,10.75,0,0,1,.06,1.5c0,.65,0,1.29,0,1.94A1.15,1.15,0,0,1,26.05,15.58Zm-.59,2a.3.3,0,0,1,.21-.25.27.27,0,0,0,.19-.3v-.53a.41.41,0,0,1,.07-.3.36.36,0,0,1,.09.24,2.81,2.81,0,0,1,0,.65c0,.14,0,.23.18.27a.54.54,0,0,1,.13.07.32.32,0,0,1,.1.47.65.65,0,0,1-.13.16.85.85,0,0,0-.28.69c0,.15,0,.31,0,.47a.25.25,0,0,1-.2,0,7,7,0,0,0,0-.79.16.16,0,0,0-.14-.2.32.32,0,0,1-.25-.26A1,1,0,0,1,25.46,17.53Zm-1.37-1.41c0,.08.05.12.12.12a.17.17,0,0,0,.2-.09.44.44,0,0,0,0-.28.16.16,0,0,1,.13.1.38.38,0,0,1-.19.45.33.33,0,0,1-.44-.2,1.39,1.39,0,0,1,0-.83c.06-.13.11-.26.29-.24a.19.19,0,0,0,.16-.06.14.14,0,0,0,0-.24c-.06,0-.14,0-.11-.14a.18.18,0,0,1,.19-.11.21.21,0,0,1,.15,0v.71a.58.58,0,0,1-.26,0,.27.27,0,0,0-.28.29A2.32,2.32,0,0,0,24.09,16.12Zm.2.75v1.2h0V16.87Zm.33-4.71a.22.22,0,0,1-.12.13.5.5,0,0,1-.48-.14.3.3,0,0,1,0-.37.94.94,0,0,0,.18-.47c0-.15,0-.29,0-.44a1.1,1.1,0,0,1,0-.18c.05,0,.06.05.06.09a1.73,1.73,0,0,1,0,.32.87.87,0,0,0,.2.53A.49.49,0,0,1,24.62,12.16Zm0,.73a1,1,0,0,1-.27.43.94.94,0,0,1-.32-.27.41.41,0,0,1,.09-.52.32.32,0,0,1,.34,0A.35.35,0,0,1,24.66,12.89Zm-.47,1.29a.6.6,0,0,1,.21-.74c.09.11.18.23.26.35a.39.39,0,0,1,0,.46A.26.26,0,0,1,24.19,14.18Zm.28-8.82c-.15.1-.21.09-.4-.05A.35.35,0,0,1,24.47,5.36Zm-.61,3.26.06-.31a2.09,2.09,0,0,0,.3-.11c0-.06,0-.13,0-.19V6.68a.76.76,0,0,1,0-.15s0,0,0,0,.06,0,.06,0a.86.86,0,0,1,0,.16V7.8a.77.77,0,0,0,.19.56c.16.18.14.3-.05.45a.41.41,0,0,0-.19.39c0,.25,0,.49,0,.74a1.76,1.76,0,0,0,.1.3h-.32a.88.88,0,0,0,.09-.65,2.29,2.29,0,0,1,0-.37A.36.36,0,0,0,24,8.83.18.18,0,0,1,23.86,8.62Zm-1.55,4.05a5.63,5.63,0,0,0,.19-1.22c0-.89,0-1.78,0-2.66s0-1.52,0-2.28c0-.36-.05-.72,0-1.09,0-.11,0-.21.16-.26a2.17,2.17,0,0,1,.07.42,3.37,3.37,0,0,0,0,.55,1.39,1.39,0,0,0,.22.55.13.13,0,0,1,0,.11c0,.06-.1.06-.16.08s-.13.07-.14.16v3a.21.21,0,0,0,.17.24s0,.06-.07.07a.2.2,0,0,0-.11.21c0,.22,0,.43,0,.65s0,.59,0,.88a.36.36,0,0,1-.16.34c.05.18.24.1.32.22s0,.12,0,.18a3.57,3.57,0,0,0-.14,1c0,.57,0,1.13,0,1.7,0,.17,0,.17-.19.16v-2.8c-.06-.09-.13-.05-.17-.08A.07.07,0,0,1,22.31,12.67Zm.32,5.71a5.34,5.34,0,0,1-.05-2.18A6.13,6.13,0,0,1,22.63,18.38Zm-1.95-1.09a3.21,3.21,0,0,1,0-.62.2.2,0,0,1,.21,0,1.48,1.48,0,0,1,0,.66.82.82,0,0,0,.15.61l.05.07a.41.41,0,0,1-.15.64l-.07,0a.42.42,0,0,1-.37-.2c-.09-.12-.14-.25-.05-.37A1.29,1.29,0,0,0,20.68,17.29Zm.26-3.42a.25.25,0,0,0-.09.24,1,1,0,0,0,.14.49,1,1,0,0,1,.13.23.26.26,0,0,1-.09.37.28.28,0,0,0-.12.28,4.9,4.9,0,0,1,.05.77.39.39,0,0,1-.3,0,.49.49,0,0,1,0-.24c0-.17,0-.34.05-.51a.31.31,0,0,0-.13-.32.3.3,0,0,1-.1-.36,2.83,2.83,0,0,1,.17-.4.46.46,0,0,0-.09-.63.7.7,0,0,1-.08-.93.92.92,0,0,0,.17-.6,3.87,3.87,0,0,1,0-.48.12.12,0,0,1,.11-.13c.08,0,.12,0,.13.11s0,.3.07.45c0,.32.08.65.14,1A.63.63,0,0,1,20.94,13.87Zm-.21-3.17c.28.18.25.41,0,.58A3.77,3.77,0,0,1,20.73,10.7Zm0-6c.14,0,.19.06.19.21a1.26,1.26,0,0,0,0,.33.53.53,0,0,1-.37,0A1,1,0,0,0,20.73,4.69Zm.2,2.16a.67.67,0,0,1-.24-.58,5.88,5.88,0,0,0,0-.73.3.3,0,0,1,.23.32,3,3,0,0,1,0,.6A2.54,2.54,0,0,0,20.93,6.85Zm0,1.34c-.24,0-.29,0-.27-.19s0-.46.05-.69a.14.14,0,0,1,.18.12A4.78,4.78,0,0,1,20.92,8.19Zm-.58.33a.44.44,0,0,1,.53-.09.16.16,0,0,1,.1.05.63.63,0,0,1,0,.24.92.92,0,0,0,.08.43.16.16,0,0,1,0,.22.35.35,0,0,0-.12.32,2.81,2.81,0,0,1,0,.29c0,.18,0,.2-.22.18a.81.81,0,0,1,0-.38.34.34,0,0,0-.17-.35.75.75,0,0,1-.27-.34A.5.5,0,0,1,20.34,8.52ZM18.8,5.63a.87.87,0,0,0,.06-.48c.35-.11.41-.09.48.12l0,0c-.06,0-.13,0-.17,0s0,.13.05.18a1.27,1.27,0,0,0,.1.12.38.38,0,0,1,.05.43,2.36,2.36,0,0,0-.13,1.09c0,.3,0,.61,0,.92,0,.09,0,.14-.15.13a.38.38,0,0,1-.15,0,.2.2,0,0,1,0-.2,5.8,5.8,0,0,0,0-1.5A1.6,1.6,0,0,0,18.82,6,.53.53,0,0,1,18.8,5.63Zm.08,2.9c0-.08.06-.16.16-.16a.26.26,0,0,1,.25.1.36.36,0,0,1,0,.4.21.21,0,0,1-.23.08l-.15,0-.17,0C18.79,8.75,18.83,8.64,18.88,8.53Zm.34,7.38a.69.69,0,0,1-.07.29c0,.05-.06.1-.12.08a.11.11,0,0,1-.07-.12V15c.19-.07.28,0,.26.12A6.77,6.77,0,0,0,19.22,15.91Zm0,.5c0,.44.08.84.08,1.24s0,.27-.28.27a.19.19,0,0,1-.12,0,4.7,4.7,0,0,1,0-.75,3,3,0,0,1,0-.42A.41.41,0,0,1,19.22,16.41Zm-.27,2a.6.6,0,0,1,.09-.39.14.14,0,0,1,.16.16c0,.34,0,.68,0,1s0,.22-.22.29a.2.2,0,0,0,0,.15c.09.08.19,0,.29,0s0,.16-.12.18l-.29,0s0,0,0,0A3.78,3.78,0,0,0,19,18.44Zm0,1.66a.24.24,0,0,1,.34.15.69.69,0,0,1,.05.24c0,.19-.07.29-.2.31a.33.33,0,0,1-.36-.22A.36.36,0,0,1,19,20.1Zm.25-10c-.2,0-.23-.06-.25-.23a2,2,0,0,1,.11-.77C19.3,9.46,19.15,9.81,19.2,10.15Zm-.28,2.34s.06,0,.08-.09a1.09,1.09,0,0,1-.13-.9,2,2,0,0,0,.08-.85c.2-.07.25,0,.24.15a6.6,6.6,0,0,0,0,.77c0,.25.05.5.06.76a6,6,0,0,1-.05,1,3.55,3.55,0,0,0,0,1v0a.19.19,0,0,1-.12.07c-.14,0-.21,0-.18-.18a1.84,1.84,0,0,0-.17-1.11A.55.55,0,0,1,18.92,12.49Zm-1.37-7a7.31,7.31,0,0,1,0,1.55A8.92,8.92,0,0,1,17.55,5.51Zm0,3a.28.28,0,0,1,.06.23c0,.33,0,.65,0,1l0,.32a.37.37,0,0,0,.12.23.56.56,0,0,1-.34,0C17.58,9.66,17.44,9.07,17.55,8.48Zm.06,2.25v.78c-.06,0-.07,0-.07,0v-.73a.05.05,0,0,1,0-.06C17.64,10.67,17.59,10.72,17.61,10.73Zm-.11,2.52a1.14,1.14,0,0,0,0-.26c-.06,0-.1,0-.13,0a0,0,0,0,1,0,0,2.19,2.19,0,0,0,.2-.95.88.88,0,0,1,.06-.27c0,.21,0,.43,0,.64a.34.34,0,0,1,0,.1c0,.17,0,.18.16.25s.16,0,.16.13-.07.13-.14.16a.34.34,0,0,0-.2.35c0,.34,0,.68,0,1a.2.2,0,0,0,.14.22A.3.3,0,0,1,18,15a.33.33,0,0,1-.31.28.48.48,0,0,1-.39-.36.25.25,0,0,1,.09-.2.54.54,0,0,0,.14-.42Zm.09,8.42a.31.31,0,0,1,0,.19.71.71,0,0,1-.07-.53c0-.1.08-.11.29,0C17.55,21.35,17.58,21.52,17.59,21.67ZM17.5,19.2V15.58c0-.06,0-.15.12-.15A29.57,29.57,0,0,1,17.5,19.2Zm.18.5c-.1.1-.1.1-.23,0C17.54,19.64,17.61,19.68,17.68,19.7Zm-.09.77a.36.36,0,0,1,0-.32C17.73,20.31,17.72,20.33,17.59,20.47Zm-1-.22v.17c0,.15,0,.2-.18.22l-.24,0a1,1,0,0,1-.07-.4.77.77,0,0,0-.07-.37c0-.1.18-.06.24-.14s-.08-.08-.12-.11a.43.43,0,0,1,0-.63.3.3,0,0,1,.34,0c.09.07.17.15.14.27A3.17,3.17,0,0,0,16.57,20.25Zm0-7.42a.3.3,0,0,1-.18.36.2.2,0,0,0-.11.2.66.66,0,0,1,0,.14v4.68c0,.08,0,.18-.05.25a.1.1,0,0,1-.06-.1V13.67a1.2,1.2,0,0,1,0-.19.43.43,0,0,0-.11-.39.45.45,0,0,1-.06-.42.2.2,0,0,1,.2-.16.59.59,0,0,1,.34.06C16.58,12.65,16.57,12.74,16.59,12.83ZM16.23,6v4.21A32.85,32.85,0,0,1,16.23,6Zm-.15,6a.21.21,0,0,0,.08-.38.65.65,0,0,0-.12-.11.5.5,0,0,0,.12-.4s0,0,.05,0a3.31,3.31,0,0,0,.17.56,1,1,0,0,1,0,.45.44.44,0,0,1-.47,0C15.94,12.07,16,12.05,16.08,12Zm-2.46,9h0a.13.13,0,0,1,0,.07h0s0,.07,0,.14a.15.15,0,0,1,0-.11A.41.41,0,0,0,13.62,21.06Zm0,1.51V21.7A1.51,1.51,0,0,1,13.63,22.57Zm.06.69V24.9A2.36,2.36,0,0,1,13.69,23.26Zm0-2.39a.76.76,0,0,0,0,.11s0,0,0,.06v0h0v0s0,0,0-.06a1.88,1.88,0,0,0-.19-.41c-.05-.11-.1-.21,0-.32a.36.36,0,0,1,.36-.14.24.24,0,0,1,.21.16.39.39,0,0,1-.24.57Zm-.09-1.24V18.42a.05.05,0,0,1,0-.05s.06,0,.08,0a.11.11,0,0,1,0,.05V19.9c-.1,0-.13,0-.14-.08ZM14,17a.59.59,0,0,1,0,.23.36.36,0,0,1-.33.19.29.29,0,0,1-.27-.21.56.56,0,0,1-.06-.31.34.34,0,0,1,.41-.31.32.32,0,0,1,.31.36S14,17,14,17Zm-.66-6.71a3,3,0,0,1,.07-.45c0-.13.13-.17.28-.16a.23.23,0,0,1,.23.22,2.17,2.17,0,0,1,0,.36A1.56,1.56,0,0,1,13.32,10.28Zm.34.35v.61A.72.72,0,0,1,13.66,10.63Zm-.06,1.06a.49.49,0,0,1,.12.41,1.25,1.25,0,0,0,.1.78.69.69,0,0,0-.47,0,1.46,1.46,0,0,0,.19-.76A1.14,1.14,0,0,1,13.6,11.69Zm.27,2.58a.82.82,0,0,1,0,.35.18.18,0,0,1-.15.17l-.17,0c-.2,0-.27-.06-.27-.26v-.13a.59.59,0,0,1,0-.11c0-.19.08-.26.23-.27S13.84,14.1,13.87,14.27Zm0,1.16c-.1.23-.28.3-.45.18a.21.21,0,0,1-.12-.22.24.24,0,0,1,.19-.17c.06,0,.13,0,.18-.05s0,.13.08.16A.2.2,0,0,1,13.88,15.43Zm-.29-8.14a1,1,0,0,1,0,.94A2,2,0,0,1,13.59,7.29Zm.17,1.24a.22.22,0,0,1,.15.12.75.75,0,0,1,0,.55.32.32,0,0,1-.38.2.26.26,0,0,1-.24-.27,1.21,1.21,0,0,1,0-.19h0V8.88A.31.31,0,0,1,13.76,8.53Zm-.44,5c.13,0,.14,0,.13-.14s0-.26.19-.33c.19.22.11.49.17.72a.38.38,0,0,1-.57-.23A.12.12,0,0,1,13.32,13.51Zm0,13.18a.79.79,0,0,0,.24-.47,5.42,5.42,0,0,0,0-.57c0-.1,0-.21.15-.25,0,.24,0,.45,0,.67a.77.77,0,0,0,.15.56.4.4,0,0,1,.07.42.35.35,0,0,1-.34.27.39.39,0,0,1-.27-.63ZM12,10.21a.43.43,0,0,1-.42,0,1,1,0,0,0-.08-.61c.26,0,.32,0,.34.23A.38.38,0,0,0,12,10.21ZM11.8,22a.22.22,0,0,1,0,.16.21.21,0,0,1-.17,0c0-.37.05-.76,0-1.14a7.33,7.33,0,0,1,0-1.15c.16-.05.21,0,.21.14,0,.39,0,.77,0,1.16A3.93,3.93,0,0,0,11.8,22Zm-.35-2.36a.21.21,0,0,1-.13-.13.45.45,0,0,1,0-.22.65.65,0,0,1,0-.21.25.25,0,0,1,.18-.14.34.34,0,0,1,.37.23.33.33,0,0,1,0,.14A.3.3,0,0,1,11.45,19.63Zm.23-3.17a.81.81,0,0,1,.07.61.13.13,0,0,1-.15.13v-.79C11.65,16.39,11.67,16.43,11.68,16.46Zm0-.47v-1.5s.07-.05.11,0a11.49,11.49,0,0,1,0,1.8c-.08,0-.13,0-.13-.07A1.34,1.34,0,0,1,11.63,16Zm0,2.45a1.67,1.67,0,0,1,0-.94A1.22,1.22,0,0,1,11.68,18.44Zm.11-5.05c0,.26-.06.53-.09.8a.34.34,0,0,1-.11-.29,4.41,4.41,0,0,0,0-.52,1.5,1.5,0,0,0-.11-.36c-.11-.26,0-.38.22-.46a.81.81,0,0,1,.27,0C11.89,12.85,11.83,13.12,11.79,13.39Zm-.21-2.86c.1,0,.15,0,.16.07V12a.57.57,0,0,1,0,.13s0,0-.06,0-.07,0-.07,0a1.15,1.15,0,0,1,0-.19c0-.23,0-.46,0-.68A5.94,5.94,0,0,0,11.58,10.53Zm-.3-1.76a.27.27,0,0,1,.28-.23.31.31,0,0,1,.32.19.82.82,0,0,1,.06.41.39.39,0,0,1-.48.34.25.25,0,0,1-.21-.28V9.07A.79.79,0,0,1,11.28,8.77Zm-.07,14.54a.93.93,0,0,1,0-.23.35.35,0,0,1,.54-.18.26.26,0,0,1,.08.13,1.71,1.71,0,0,1,0,.31v.05a.29.29,0,0,1-.14.31.42.42,0,0,1-.42,0C11.21,23.59,11.21,23.44,11.21,23.31ZM8.92,10.73a.18.18,0,0,1,.27,0,.35.35,0,0,1,0,.58,1.3,1.3,0,0,1-.29.14C8.65,11.17,8.67,10.92,8.92,10.73Zm.36,1.4a.23.23,0,0,1-.22.12.3.3,0,0,1-.27-.15.33.33,0,0,1,0-.22c.32.07.34,0,.4-.27A.41.41,0,0,1,9.28,12.13Zm-.5.49c0-.1.07-.19.18-.2a.27.27,0,0,1,.23.14.8.8,0,0,1,.09.5s0,.08-.09.1a.52.52,0,0,1-.18,0c-.15,0-.17,0-.19.13a.29.29,0,0,0,.13.3.11.11,0,0,0,.14-.12,1.38,1.38,0,0,0,0-.2c.18-.08.22-.07.26.09s0,.07,0,.11a.28.28,0,0,1-.17.34L8.73,14a2,2,0,0,1-.06-.47A2.61,2.61,0,0,1,8.78,12.62Zm-.07,2.26v-.15c0-.09,0-.16.11-.2s.24,0,.31.05a.7.7,0,0,1,.14.59.31.31,0,0,1-.2.22.23.23,0,0,1-.33-.17.25.25,0,0,1,0-.07,2.44,2.44,0,0,1,0-.27Zm.08,2.41a.81.81,0,0,0,.07-.87,1.35,1.35,0,0,1-.11-.59c0-.09,0-.18.11-.22s.27,0,.35.08a.41.41,0,0,1,0,.58.18.18,0,0,0-.06.14,4.85,4.85,0,0,0,.08,1.2,1.43,1.43,0,0,0,.09.27.31.31,0,0,1-.1.39.37.37,0,0,0-.16.31.45.45,0,0,1-.1.31c-.07-.34-.2-.64-.28-.95A.7.7,0,0,1,8.79,17.29Zm.3,3.93c0,.13,0,.25,0,.38a.35.35,0,0,1-.08.26.07.07,0,0,1,0-.09,4.24,4.24,0,0,0-.19-1.12A5.63,5.63,0,0,1,8.65,20c0-.1.13-.07.19-.1s-.07-.12-.1-.18a.57.57,0,0,1,0-.46.2.2,0,0,1,.2-.15c.12,0,.25,0,.31.12a.84.84,0,0,1,.07.26.28.28,0,0,1-.18.31c-.06,0-.14,0-.18.09a.83.83,0,0,0,.17.15.49.49,0,0,1,.12.73A.72.72,0,0,0,9.09,21.22ZM9,23.14a2.87,2.87,0,0,1,0-.92A.94.94,0,0,1,9,23.14ZM7,14c0-.25,0-.5,0-.75A.69.69,0,0,1,7,13a.08.08,0,0,1,.1-.06c.06,0,.07,0,.07.09v1.13C7,14.17,7,14.16,7,14Zm0,2.77V15c.15,0,.18,0,.19.11s0,.41,0,.61,0,.42,0,.64a2.13,2.13,0,0,0,.07.55.15.15,0,0,1-.19,0C7,16.9,7,16.83,7,16.77ZM7,19.2V17.62c.1,0,.12.05.14.12a1.24,1.24,0,0,1,.07.6,2.62,2.62,0,0,0,0,.74.17.17,0,0,1,0,.12A.5.5,0,0,1,7,19.2Zm27.73,8.11a10.89,10.89,0,0,1-.7,1.65,10.41,10.41,0,0,1-1,1.54,9.72,9.72,0,0,1-.79.91,13.69,13.69,0,0,1-1.9,1.67,16.26,16.26,0,0,1-1.95,1.21,15.41,15.41,0,0,1-4.17,1.45,15.5,15.5,0,0,1-2.14.29,14.53,14.53,0,0,1-1.48.06A15.59,15.59,0,0,1,17,35.58a14.48,14.48,0,0,1-2.77-1,16.26,16.26,0,0,1-3.3-2.21A13.86,13.86,0,0,1,8.07,29a4.37,4.37,0,0,1-.36-.68c.24,0,.44.07.65.06a.63.63,0,0,0-.1-.31,15.76,15.76,0,0,1-.68-1.89,11.22,11.22,0,0,1-.34-1.82,6.79,6.79,0,0,1,0-.9,4.14,4.14,0,0,1,.08-1,2.82,2.82,0,0,1,.31.56,7,7,0,0,0,.94,1.64,2.55,2.55,0,0,1,.24.31c0,.06.09,0,.12,0a.37.37,0,0,0,0-.18.86.86,0,0,0-.11-.52.83.83,0,0,1-.06-.67.25.25,0,0,1,.34-.15.32.32,0,0,1,.13.4A.5.5,0,0,1,9,24c-.05,0-.05.05,0,.1s.19,0,.24.11a1.48,1.48,0,0,0-.1.66.78.78,0,0,0,.49.65,1.86,1.86,0,0,0,.41.08.49.49,0,0,1,.39.16c.12.14.26.27.38.42a3.6,3.6,0,0,0,.59.51c.35.3.72.57,1.07.87A14.09,14.09,0,0,0,14,28.63c.38.23.77.44,1.15.66l1,.56c.23.13.45.28.67.43a.27.27,0,0,0,.16,0,3.32,3.32,0,0,0,0-.63c-.05-.4-.09-.8-.15-1.2a10.28,10.28,0,0,0-.68-2.6A7.59,7.59,0,0,1,15.56,24a3.36,3.36,0,0,1,.2-1.93,3,3,0,0,1,.72-.94.18.18,0,0,1,.2,0,.69.69,0,0,1,0,.25,1.42,1.42,0,0,0,.4,1.47,4.7,4.7,0,0,0,.87.72c.09,0,.13-.11.18-.18.37-.46.75-.9,1.16-1.32a10,10,0,0,1,1.46-1.21l.05,0c-.06-.26,0-.53-.07-.79a1,1,0,0,0-.17-.44.42.42,0,0,1,.12-.6A.25.25,0,0,1,21,19s.06.1.1.15a.25.25,0,0,1,0,.35.71.71,0,0,0-.16.62.61.61,0,0,1,0,.4.13.13,0,0,0,.18,0,5.9,5.9,0,0,0,1.76-2,1,1,0,0,1,.16-.28.88.88,0,0,1,.26.12,8.35,8.35,0,0,1,1.56,1.08,3.23,3.23,0,0,1,.75.89,2.18,2.18,0,0,1-.25,2.52,2.08,2.08,0,0,1-1,.69,3.61,3.61,0,0,0-1.45.79,1.51,1.51,0,0,0-.32.43,1,1,0,0,0,.3,1.31A1.1,1.1,0,0,0,24.3,26c.17-.16.33-.34.51-.49a1.58,1.58,0,0,1,.39-.24c.26-.1.45,0,.47.27a6,6,0,0,0,.15.83,1.17,1.17,0,0,1-.23.88,4.86,4.86,0,0,1-.83.93,6.08,6.08,0,0,1-.47.39s-.08.1-.18.07v-1.5a.18.18,0,0,0-.2.06,2.15,2.15,0,0,1-3.06-.71,1.78,1.78,0,0,1-.1-1.62,2.67,2.67,0,0,1,.65-1l1.81-1.73a2,2,0,0,0,.59-1,2.28,2.28,0,0,0-.2-1.45l-.13-.23s0,0,0,0-.08,0-.11.07a6.55,6.55,0,0,1-1.73,1.79c-.52.4-1,.79-1.53,1.22a9.2,9.2,0,0,0-1.62,1.85,3.21,3.21,0,0,0-.21.3,5.24,5.24,0,0,0-.55,1.49,4.49,4.49,0,0,0,0,1.37c.08.51.15,1,.18,1.53,0,.67,0,1.34,0,2,0,.46,0,.92,0,1.38a3.36,3.36,0,0,0,.06.63s0,.07.07.1c.27-.29.48-.63.77-1,0,.19,0,.33,0,.47v.89a.24.24,0,0,0,.15.06H21.4a5.56,5.56,0,0,0,.82,0,3.22,3.22,0,0,0,1.47-.69,12.23,12.23,0,0,0,1.16-1c.42-.39.81-.81,1.2-1.24a20.48,20.48,0,0,0,1.54-1.94l.55-.75a.45.45,0,0,0,.08-.43,4.63,4.63,0,0,0-.5-.93,1.87,1.87,0,0,0-1.22-.72.3.3,0,0,1-.17-.05,4.15,4.15,0,0,0-.65-1.88,1.08,1.08,0,0,1,.53-.06,3.82,3.82,0,0,1,2.18.9,2.6,2.6,0,0,1,.72.89,1.89,1.89,0,0,1,.18,1.1,1.14,1.14,0,0,1-.08.4.67.67,0,0,0,0,.2,5.32,5.32,0,0,0,1.46-.61,6.38,6.38,0,0,1-.17-1.05c0-.07.11-.06.15-.13a1,1,0,0,1-.1-.86,2.59,2.59,0,0,0,0-.48.57.57,0,0,0-.15-.46.33.33,0,0,1,0-.42.32.32,0,0,1,.33-.21.41.41,0,0,1,.32.32.5.5,0,0,1-.07.33,1.07,1.07,0,0,0-.13.53,1.1,1.1,0,0,0,.16.56l.09.13a.34.34,0,0,1,0,.44,1.08,1.08,0,0,0-.18.24c.06.09.17.14.19.25s-.08.07-.1.12a1.54,1.54,0,0,0,.16.38,1.12,1.12,0,0,0,.46-.3,3.71,3.71,0,0,0,.59-.72c.14-.21.26-.42.38-.64s.12-.21.36-.21a.34.34,0,0,0,0-.22v-.42c0-.06,0-.11.09-.1s.06.05.07.09a.66.66,0,0,1,0,.14c0,.34,0,.69,0,1,0,.62,0,1.24-.08,1.86a9.94,9.94,0,0,1-.33,1.95,2.66,2.66,0,0,0-.09.8s0,.06,0,.09a1.31,1.31,0,0,0,.53-.34A3.67,3.67,0,0,0,34,28.37c.21-.41.38-.83.61-1.23a.35.35,0,0,0,.05-.08A.2.2,0,0,1,34.76,27.31Zm-9-3.91s0,0,0,0h0Zm-.06,0h-.21l-.05,0C25.57,23.36,25.66,23.43,25.74,23.42Zm9.67-.19a2,2,0,0,1,0-.92c.15.07.14.22.16.34A.68.68,0,0,1,35.41,23.23ZM35.56,17a.37.37,0,0,1,0,.18s-.1,0-.18,0c0-.52,0-1.05,0-1.58,0,0,0,0,.09-.05a1.24,1.24,0,0,1,.07.54A4.41,4.41,0,0,0,35.56,17Zm-.17.75c0-.08,0-.14.08-.18s0,.08,0,.12v2c0,.07,0,.16-.09.16s0-.07,0-.11C35.34,19.07,35.4,18.41,35.39,17.76Zm0,2.83a.81.81,0,0,1,.11-.43v1.39c-.07,0-.15,0-.14-.07C35.4,21.19,35.37,20.89,35.39,20.59Zm.18-5.3c-.15,0-.15,0-.21-.44a.71.71,0,0,1,.26,0A1.82,1.82,0,0,0,35.57,15.29Z"/><path class="cls-2" d="M34.67,27.06a.35.35,0,0,1-.05.08c-.23.4-.4.82-.61,1.23a3.67,3.67,0,0,1-.79,1.08,1.31,1.31,0,0,1-.53.34s0-.06,0-.09a2.66,2.66,0,0,1,.09-.8A9.94,9.94,0,0,0,33.07,27c0-.62.06-1.24.08-1.86,0-.34,0-.69,0-1a.66.66,0,0,0,0-.14s0-.09-.07-.09-.09,0-.09.1v.42a.34.34,0,0,1,0,.22c-.24,0-.24,0-.36.21s-.24.43-.38.64a3.71,3.71,0,0,1-.59.72,1.12,1.12,0,0,1-.46.3,1.54,1.54,0,0,1-.16-.38s.09-.06.1-.12-.13-.16-.19-.25a1.08,1.08,0,0,1,.18-.24.34.34,0,0,0,0-.44L31,24.88a1.1,1.1,0,0,1-.16-.56,1.07,1.07,0,0,1,.13-.53.5.5,0,0,0,.07-.33.41.41,0,0,0-.32-.32.32.32,0,0,0-.33.21.33.33,0,0,0,0,.42.57.57,0,0,1,.15.46,2.59,2.59,0,0,1,0,.48,1,1,0,0,0,.1.86c0,.07-.12.06-.15.13a6.38,6.38,0,0,0,.17,1.05,5.32,5.32,0,0,1-1.46.61.67.67,0,0,1,0-.2,1.14,1.14,0,0,0,.08-.4,1.89,1.89,0,0,0-.18-1.1,2.6,2.6,0,0,0-.72-.89,3.82,3.82,0,0,0-2.18-.9,1.08,1.08,0,0,0-.53.06,4.15,4.15,0,0,1,.65,1.88.3.3,0,0,0,.17.05,1.87,1.87,0,0,1,1.22.72,4.63,4.63,0,0,1,.5.93.45.45,0,0,1-.08.43l-.55.75a20.48,20.48,0,0,1-1.54,1.94c-.39.43-.78.85-1.2,1.24a12.23,12.23,0,0,1-1.16,1,3.22,3.22,0,0,1-1.47.69,5.56,5.56,0,0,1-.82,0H19a.24.24,0,0,1-.15-.06v-.89c0-.14,0-.28,0-.47-.29.34-.5.68-.77,1-.07,0-.06-.07-.07-.1a3.36,3.36,0,0,1-.06-.63c0-.46,0-.92,0-1.38,0-.67,0-1.34,0-2,0-.51-.1-1-.18-1.53a4.49,4.49,0,0,1,0-1.37,5.24,5.24,0,0,1,.55-1.49,3.21,3.21,0,0,1,.21-.3,9.2,9.2,0,0,1,1.62-1.85c.49-.43,1-.82,1.53-1.22a6.55,6.55,0,0,0,1.73-1.79s.05-.07.11-.07,0,0,0,0l.13.23a2.28,2.28,0,0,1,.2,1.45,2,2,0,0,1-.59,1L21.4,23.9a2.67,2.67,0,0,0-.65,1,1.78,1.78,0,0,0,.1,1.62,2.15,2.15,0,0,0,3.06.71.18.18,0,0,1,.2-.06v1.5c.1,0,.14,0,.18-.07a6.08,6.08,0,0,0,.47-.39,4.86,4.86,0,0,0,.83-.93,1.17,1.17,0,0,0,.23-.88,6,6,0,0,1-.15-.83c0-.27-.21-.37-.47-.27a1.58,1.58,0,0,0-.39.24c-.18.15-.34.33-.51.49a1.1,1.1,0,0,1-1.47.09,1,1,0,0,1-.3-1.31,1.51,1.51,0,0,1,.32-.43,3.61,3.61,0,0,1,1.45-.79,2.08,2.08,0,0,0,1-.69,2.18,2.18,0,0,0,.25-2.52,3.23,3.23,0,0,0-.75-.89,8.35,8.35,0,0,0-1.56-1.08.88.88,0,0,0-.26-.12,1,1,0,0,0-.16.28,5.9,5.9,0,0,1-1.76,2,.13.13,0,0,1-.18,0,.61.61,0,0,0,0-.4.71.71,0,0,1,.16-.62.25.25,0,0,0,0-.35c0-.05-.06-.11-.1-.15a.25.25,0,0,0-.37-.06.42.42,0,0,0-.12.6,1,1,0,0,1,.17.44c0,.26,0,.53.07.79l-.05,0a10,10,0,0,0-1.46,1.21c-.41.42-.79.86-1.16,1.32-.05.07-.09.16-.18.18a4.7,4.7,0,0,1-.87-.72,1.42,1.42,0,0,1-.4-1.47.69.69,0,0,0,0-.25.18.18,0,0,0-.2,0,3,3,0,0,0-.72.94,3.36,3.36,0,0,0-.2,1.93,7.59,7.59,0,0,0,.53,1.86,10.28,10.28,0,0,1,.68,2.6c.06.4.1.8.15,1.2a3.31,3.31,0,0,1,0,.63.27.27,0,0,1-.16,0c-.22-.15-.44-.3-.67-.43l-1-.56c-.38-.22-.77-.43-1.15-.66a14.09,14.09,0,0,1-1.59-1.05c-.35-.3-.72-.57-1.07-.87a3.6,3.6,0,0,1-.59-.51c-.12-.15-.26-.28-.38-.42a.49.49,0,0,0-.39-.16,1.86,1.86,0,0,1-.41-.08.78.78,0,0,1-.49-.65,1.48,1.48,0,0,1,.1-.66c-.05-.11-.16-.08-.24-.11s0-.08,0-.1a.5.5,0,0,0,.27-.21.32.32,0,0,0-.13-.4.25.25,0,0,0-.34.15.83.83,0,0,0,.06.67.86.86,0,0,1,.11.52.37.37,0,0,1,0,.18c0,.06-.09.08-.12,0a2.55,2.55,0,0,0-.24-.31A7,7,0,0,1,7.58,23a2.82,2.82,0,0,0-.31-.56,4.14,4.14,0,0,0-.08,1,6.79,6.79,0,0,0,0,.9,11.22,11.22,0,0,0,.34,1.82A15.76,15.76,0,0,0,8.26,28a.63.63,0,0,1,.1.31c-.21,0-.41-.07-.65-.06a4.37,4.37,0,0,0,.36.68,13.86,13.86,0,0,0,2.84,3.36,16.26,16.26,0,0,0,3.3,2.21,14.48,14.48,0,0,0,2.77,1,15.59,15.59,0,0,0,3.65.51A14.53,14.53,0,0,0,22.11,36a15.5,15.5,0,0,0,2.14-.29,15.41,15.41,0,0,0,4.17-1.45,16.26,16.26,0,0,0,1.95-1.21,13.69,13.69,0,0,0,1.9-1.67,9.72,9.72,0,0,0,.79-.91,10.41,10.41,0,0,0,1-1.54,10.89,10.89,0,0,0,.7-1.65A.2.2,0,0,0,34.67,27.06Zm-4-3.33c-.1,0-.16-.06-.16-.19s0-.2.16-.21.15.05.16.16S30.79,23.73,30.7,23.73Z"/><path class="cls-2" d="M22.54,12.37c.05.18.24.1.32.22s0,.12,0,.18a3.57,3.57,0,0,0-.14,1c0,.57,0,1.13,0,1.7,0,.17,0,.17-.19.16v-2.8c-.06-.09-.13-.05-.17-.08a.07.07,0,0,1,0-.06,5.63,5.63,0,0,0,.19-1.22c0-.89,0-1.78,0-2.66s0-1.52,0-2.28c0-.36-.05-.72,0-1.09,0-.11,0-.21.16-.26a2.17,2.17,0,0,1,.07.42,2.53,2.53,0,0,0,0,.55,1.39,1.39,0,0,0,.22.55.13.13,0,0,1,0,.11c0,.06-.1.06-.16.08s-.13.07-.14.16v3a.21.21,0,0,0,.17.24s0,.06-.07.07a.2.2,0,0,0-.11.21c0,.22,0,.43,0,.65s0,.59,0,.88A.36.36,0,0,1,22.54,12.37Z"/><path class="cls-2" d="M21,16.25a.39.39,0,0,1-.3,0,.49.49,0,0,1,0-.24c0-.17,0-.34.05-.51a.33.33,0,0,0-.13-.32.3.3,0,0,1-.1-.36,2.83,2.83,0,0,1,.17-.4.46.46,0,0,0-.09-.63.7.7,0,0,1-.08-.93.92.92,0,0,0,.17-.6,3.87,3.87,0,0,1,0-.48.12.12,0,0,1,.11-.13c.08,0,.12,0,.13.11s0,.3.07.45c0,.32.08.65.14,1a.63.63,0,0,1-.19.68.25.25,0,0,0-.09.24,1,1,0,0,0,.14.49,1,1,0,0,1,.13.23.26.26,0,0,1-.09.37.27.27,0,0,0-.12.28A4.9,4.9,0,0,1,21,16.25Z"/><path class="cls-2" d="M31.07,12.18l-.12.09a.16.16,0,0,0,0,.24,1.43,1.43,0,0,0,.14.2c.12.17.1.27-.12.4,0-.17,0-.37-.2-.41a.32.32,0,0,0,0,.52.43.43,0,0,1,.14.55.19.19,0,0,0,0,.18.81.81,0,0,1,.05.87,2.32,2.32,0,0,0-.18,1c0,.1.06.19.07.3a.15.15,0,0,1-.17,0c-.05,0,0-.11,0-.16a6.63,6.63,0,0,0-.1-1.26,2,2,0,0,1,0-.59.83.83,0,0,0-.05-.41,1.23,1.23,0,0,1,0-1.09.72.72,0,0,0,.08-.57,2.53,2.53,0,0,1,0-1l0-.38a.11.11,0,0,1,.1-.12c.08,0,.1.05.11.11a.66.66,0,0,1,0,.14v.84A.5.5,0,0,0,31.07,12.18Z"/><path class="cls-2" d="M25.77,11.2a.75.75,0,0,0,.09-.41V9.64a2,2,0,0,1,0-.59.14.14,0,0,0-.06-.13l-.13-.09a.25.25,0,0,1,0-.36.33.33,0,0,0,.14-.33V5.88c0-.08,0-.17,0-.25s0-.14.19-.12a.38.38,0,0,1,0,.21c0,.78,0,1.57,0,2.35a1,1,0,0,0,.11.48.3.3,0,0,1,0,.4.25.25,0,0,0-.06.18c0,.62,0,1.23,0,1.84a.79.79,0,0,0,.06.22C26,11.27,25.91,11.25,25.77,11.2Z"/><path class="cls-2" d="M8.94,18.89c-.07-.34-.2-.64-.28-.95a.7.7,0,0,1,.13-.65.81.81,0,0,0,.07-.87,1.35,1.35,0,0,1-.11-.59c0-.09,0-.18.11-.22s.27,0,.35.08a.41.41,0,0,1,0,.58.18.18,0,0,0-.06.14,4.85,4.85,0,0,0,.08,1.2,1.43,1.43,0,0,0,.09.27.31.31,0,0,1-.1.39.37.37,0,0,0-.16.31A.45.45,0,0,1,8.94,18.89Z"/><path class="cls-2" d="M28.16,12.8a.39.39,0,0,0-.28-.33.35.35,0,0,0-.35.53,1.38,1.38,0,0,1,.14.82,3.88,3.88,0,0,0,0,.59c0,.54,0,1.08,0,1.63v.15c0,.32-.05.63-.07.95,0,.14,0,.16.2.14a.44.44,0,0,0,0-.1c0-.43,0-.86,0-1.28,0-.75,0-1.5,0-2.24a.6.6,0,0,1,.21-.55A.32.32,0,0,0,28.16,12.8Zm-.29.28c-.19-.11-.22-.19-.12-.35s.05-.09.11-.08a.16.16,0,0,1,.13.13A.34.34,0,0,1,27.87,13.08Z"/><path class="cls-2" d="M19.21,13.37a6,6,0,0,0,.05-1c0-.26,0-.51-.06-.76a6.6,6.6,0,0,1,0-.77c0-.19,0-.22-.24-.15a2,2,0,0,1-.08.85,1.09,1.09,0,0,0,.13.9c0,.06-.06.07-.08.09a.55.55,0,0,0-.16.74,1.84,1.84,0,0,1,.17,1.11c0,.14,0,.2.18.18a.19.19,0,0,0,.12-.07v0A3.55,3.55,0,0,1,19.21,13.37Zm-.27-.09a.88.88,0,0,1-.13-.28.16.16,0,0,1,.06-.2.25.25,0,0,1,.26,0,.23.23,0,0,1,0,.3A.36.36,0,0,1,18.94,13.28Z"/><path class="cls-2" d="M18.86,5.15c.35-.11.41-.09.48.12l0,0c-.06,0-.13,0-.17,0s0,.13.05.18a1.27,1.27,0,0,0,.1.12.38.38,0,0,1,.05.43,2.36,2.36,0,0,0-.13,1.09c0,.3,0,.61,0,.92,0,.09,0,.14-.15.14a.77.77,0,0,1-.15,0,.2.2,0,0,1,0-.2,5.8,5.8,0,0,0,0-1.5A1.6,1.6,0,0,0,18.82,6a.53.53,0,0,1,0-.39A.87.87,0,0,0,18.86,5.15Z"/><path class="cls-2" d="M26.36,17.38a.54.54,0,0,0-.13-.07c-.14,0-.18-.13-.18-.27a2.81,2.81,0,0,0,0-.65.36.36,0,0,0-.09-.24.41.41,0,0,0-.07.3V17a.27.27,0,0,1-.19.3.3.3,0,0,0-.21.25,1,1,0,0,0,0,.42.32.32,0,0,0,.25.26.16.16,0,0,1,.14.2,7,7,0,0,1,0,.79.25.25,0,0,0,.2,0c0-.16,0-.32,0-.47a.85.85,0,0,1,.28-.69.65.65,0,0,0,.13-.16A.32.32,0,0,0,26.36,17.38Zm-.42.54a.16.16,0,0,1-.18.15.15.15,0,0,1-.16-.15,2.41,2.41,0,0,1,0-.38.17.17,0,0,1,.16-.16.16.16,0,0,1,.18.16,1.47,1.47,0,0,1,0,.21h0A1,1,0,0,1,25.94,17.92Z"/><path class="cls-2" d="M16.25,18.46a.1.1,0,0,1-.06-.1V13.67a1.2,1.2,0,0,1,0-.19.43.43,0,0,0-.11-.39.45.45,0,0,1-.06-.42.2.2,0,0,1,.2-.16.59.59,0,0,1,.34.06c0,.08,0,.17,0,.26a.3.3,0,0,1-.18.36.21.21,0,0,0-.11.21.56.56,0,0,1,0,.13v4.68C16.3,18.29,16.33,18.39,16.25,18.46Z"/><path class="cls-2" d="M26,11.47c.09.09.06.2.07.3a10.75,10.75,0,0,1,.06,1.5c0,.65,0,1.29,0,1.94a1.15,1.15,0,0,1,0,.37.12.12,0,0,1-.21-.07,4.7,4.7,0,0,1,0-.65,3.7,3.7,0,0,0,0-.94,1.55,1.55,0,0,1,0-.43.41.41,0,0,0-.09-.38.24.24,0,0,1,0-.34,1.07,1.07,0,0,0,.12-.7c0-.14,0-.27,0-.41A.17.17,0,0,1,26,11.47Z"/><path class="cls-2" d="M29.36,17.22c-.17,0-.17,0-.18-.11a5.31,5.31,0,0,1,0-.69c0-.24,0-.47,0-.71a1.46,1.46,0,0,0-.12-.5.33.33,0,0,1,0-.24,2.73,2.73,0,0,0,.13-.9,5.9,5.9,0,0,1,0-.84c0-.06,0-.13,0-.19a.26.26,0,0,1,.06.2,5.49,5.49,0,0,1,0,.81,1.84,1.84,0,0,0,.23,1,.16.16,0,0,1-.08.06.22.22,0,0,0-.17.24c0,.16,0,.31,0,.46a6.15,6.15,0,0,1,0,1A3.3,3.3,0,0,0,29.36,17.22Z"/><path class="cls-2" d="M9.09,20a.83.83,0,0,1-.17-.15c0-.07.12-.06.18-.09a.28.28,0,0,0,.18-.31.84.84,0,0,0-.07-.26c-.06-.14-.19-.11-.31-.12a.2.2,0,0,0-.2.15.57.57,0,0,0,0,.46c0,.06.09.11.1.18s-.14,0-.19.1a5.63,5.63,0,0,0,.14.69A4.24,4.24,0,0,1,9,21.77a.07.07,0,0,0,0,.09.35.35,0,0,0,.08-.26c0-.13,0-.25,0-.38a.72.72,0,0,1,.12-.49A.49.49,0,0,0,9.09,20Zm0,.69a.27.27,0,0,1-.2-.22A.23.23,0,0,1,9,20.22C9.23,20.37,9.24,20.46,9.06,20.69Z"/><path class="cls-2" d="M17.48,13c-.06,0-.1,0-.13,0a0,0,0,0,1,0,0,2.19,2.19,0,0,0,.2-.95.88.88,0,0,1,.06-.27c0,.21,0,.43,0,.64a.34.34,0,0,1,0,.1c0,.17,0,.18.16.25s.16,0,.16.13-.07.13-.14.16a.34.34,0,0,0-.2.35c0,.34,0,.68,0,1a.2.2,0,0,0,.14.22A.3.3,0,0,1,18,15a.33.33,0,0,1-.31.28.48.48,0,0,1-.39-.36.28.28,0,0,1,.08-.2.51.51,0,0,0,.15-.42v-1A1.14,1.14,0,0,0,17.48,13Z"/><path class="cls-2" d="M29.54,9.75a1.39,1.39,0,0,1-.15-.66c0-.48,0-.95,0-1.42a1,1,0,0,1,.12-.57c-.1-.07-.18-.12-.3,0v.16c0,.65,0,1.3,0,2a.82.82,0,0,1-.12.43.26.26,0,0,0-.07.15,1.07,1.07,0,0,0,.13.66c.08.14.2.15.29,0A.59.59,0,0,0,29.54,9.75Zm-.24.45c-.21-.23-.22-.35-.06-.57a.2.2,0,0,1,.21.18C29.49,10,29.45,10.06,29.3,10.2Z"/><path class="cls-2" d="M16.15,20.66a1,1,0,0,1-.07-.4.77.77,0,0,0-.07-.37c0-.1.18-.06.24-.14s-.08-.08-.12-.11a.43.43,0,0,1,0-.63.3.3,0,0,1,.34,0c.09.07.17.15.14.27a3.15,3.15,0,0,0-.06,1v.17c0,.14,0,.2-.18.22Z"/><path class="cls-2" d="M32.89,23.46c0-.48,0-1,0-1.44,0-.12.05-.16.16-.18a.3.3,0,0,1,.32.18.45.45,0,0,1,0,.47.22.22,0,0,1-.17.11.08.08,0,0,0-.09.06c0,.07.07.08.1.12a.54.54,0,0,1,.18.57c0,.15-.1.2-.26.18A.3.3,0,0,1,32.89,23.46Z"/><path class="cls-2" d="M21.07,9.15A.92.92,0,0,1,21,8.72a.63.63,0,0,0,0-.24.16.16,0,0,0-.1-.05.44.44,0,0,0-.53.09.5.5,0,0,0-.1.57.75.75,0,0,0,.27.34.34.34,0,0,1,.17.35.81.81,0,0,0,0,.38c.21,0,.22,0,.22-.18a2.81,2.81,0,0,0,0-.29A.35.35,0,0,1,21,9.37.16.16,0,0,0,21.07,9.15Zm-.36.11a.46.46,0,0,1-.32-.39.38.38,0,0,1,0-.15c0-.12.1-.18.2-.17a.18.18,0,0,1,.16.18A1.21,1.21,0,0,1,20.71,9.26Z"/><path class="cls-2" d="M9.06,13.3c.18-.08.22-.07.26.09s0,.07,0,.11a.28.28,0,0,1-.17.34L8.73,14a2,2,0,0,1-.06-.47,2.61,2.61,0,0,1,.11-.92c0-.1.07-.19.18-.2a.27.27,0,0,1,.23.14.8.8,0,0,1,.09.5.12.12,0,0,1-.08.1.63.63,0,0,1-.19,0c-.15,0-.17,0-.19.13a.29.29,0,0,0,.13.3.13.13,0,0,0,.15-.12C9.09,13.43,9.07,13.37,9.06,13.3Z"/><path class="cls-2" d="M24.57,8.36a.77.77,0,0,1-.19-.56V6.69a.86.86,0,0,0,0-.16s0,0-.06,0,0,0,0,0a.76.76,0,0,0,0,.15V8c0,.06,0,.13,0,.19a2.09,2.09,0,0,1-.3.11l-.06.31a.18.18,0,0,0,.12.21.36.36,0,0,1,.24.39,2.29,2.29,0,0,0,0,.37.88.88,0,0,1-.09.65h.32a1.76,1.76,0,0,1-.1-.3c0-.25,0-.49,0-.74a.41.41,0,0,1,.19-.39C24.71,8.66,24.73,8.54,24.57,8.36Zm-.33.39q-.18,0-.18-.21c0-.13.06-.21.19-.21s.16.05.16.2S24.37,8.75,24.24,8.75Z"/><path class="cls-2" d="M33.34,13.58a4.17,4.17,0,0,0,.09.51c0,.31-.11.32-.31.28l-.09,0a.33.33,0,0,1,.1-.06.25.25,0,0,0,.15-.34.16.16,0,0,0-.11-.1.49.49,0,0,1-.16-.05.26.26,0,0,1-.18-.21c0-.17,0-.34,0-.51a.82.82,0,0,1,.09-.41c.08-.2.21-.22.36-.07a.51.51,0,0,1,.11.55.09.09,0,0,1-.1.09l-.13,0a.16.16,0,0,0-.11.18.16.16,0,0,0,.16.15Z"/><path class="cls-2" d="M21.13,18l-.05-.07a.82.82,0,0,1-.15-.61,1.48,1.48,0,0,0,0-.66.2.2,0,0,0-.21,0,3.21,3.21,0,0,0,0,.62,1.29,1.29,0,0,1-.19.81c-.09.12,0,.25.05.37a.42.42,0,0,0,.37.2l.07,0A.41.41,0,0,0,21.13,18Zm-.23.48c-.21-.1-.26-.19-.21-.36s0-.13.13-.14a.19.19,0,0,1,.19.11C21.06,18.2,21,18.32,20.9,18.48Z"/><path class="cls-2" d="M13.73,25.4c0,.24,0,.45,0,.67a.77.77,0,0,0,.15.56.4.4,0,0,1,.07.42.35.35,0,0,1-.34.27.39.39,0,0,1-.27-.63.79.79,0,0,0,.24-.47,5.42,5.42,0,0,0,0-.57C13.58,25.55,13.56,25.44,13.73,25.4Z"/><path class="cls-2" d="M30.94,10.23c-.18.08-.18.08-.33,0a.59.59,0,0,1,0-.19V8c0-.07,0-.14.1-.15s.14,0,.15.16a.57.57,0,0,1,0,.13V9.84A.57.57,0,0,0,30.94,10.23Z"/><path class="cls-2" d="M30.69,16.4h.11v3.35c-.1,0-.16,0-.16-.13v-.05c0-.79,0-1.57,0-2.36A2.82,2.82,0,0,1,30.69,16.4Z"/><path class="cls-2" d="M33.13,12.16c.28,0,.27-.22.27-.43a.3.3,0,0,1,0,.44.34.34,0,0,1-.41.12A.23.23,0,0,1,32.9,12a2.1,2.1,0,0,0,0-.79.85.85,0,0,1,0-.32.2.2,0,0,1,.23-.16c.12,0,.15,0,.19.17a2.92,2.92,0,0,1,0,.66l-.08,0c-.19,0-.2.06-.2.25A.65.65,0,0,0,33.13,12.16Z"/><path class="cls-2" d="M24.6,14.64v.71a.58.58,0,0,1-.26,0,.27.27,0,0,0-.28.29,2.32,2.32,0,0,0,0,.46c0,.08.05.12.12.12a.17.17,0,0,0,.2-.09.44.44,0,0,0,0-.28.16.16,0,0,1,.13.1.38.38,0,0,1-.19.45.34.34,0,0,1-.44-.2,1.39,1.39,0,0,1,0-.83c.06-.13.11-.26.29-.24a.19.19,0,0,0,.16-.06.14.14,0,0,0,0-.24c-.06,0-.14,0-.11-.14a.18.18,0,0,1,.19-.11A.21.21,0,0,1,24.6,14.64Z"/><path class="cls-2" d="M33.19,21.66c-.07,0-.11,0-.16,0a3,3,0,0,0-.07-.9,4.39,4.39,0,0,1-.07-.72c0-.18,0-.22.23-.21l.16,0a1.23,1.23,0,0,1,0,.78c0,.22-.09.44-.13.65A1.16,1.16,0,0,0,33.19,21.66Z"/><path class="cls-2" d="M31.11,21.7a.38.38,0,0,0-.35-.26c-.13,0-.35.15-.36.26a.44.44,0,0,0,.09.4.61.61,0,0,1,.1.67c0,.07-.07.13,0,.2a.3.3,0,0,0,.29,0,.34.34,0,0,0,0-.2.73.73,0,0,1,0-.36.43.43,0,0,1,.15-.33A.3.3,0,0,0,31.11,21.7Zm-.3.35c-.24-.14-.26-.24-.1-.45C30.93,21.64,30.93,21.86,30.81,22.05Z"/><path class="cls-2" d="M19.22,16.41c0,.44.08.84.08,1.24s0,.27-.28.27a.15.15,0,0,1-.12,0,4.54,4.54,0,0,1,0-.74,3,3,0,0,1,0-.42A.41.41,0,0,1,19.22,16.41Z"/><path class="cls-2" d="M13.31,8.94V8.88a.31.31,0,0,1,.45-.35.22.22,0,0,1,.15.12.75.75,0,0,1,0,.55.31.31,0,0,1-.37.2.27.27,0,0,1-.25-.27,1.21,1.21,0,0,1,0-.19Z"/><path class="cls-2" d="M29.56,10.85a.7.7,0,0,0-.47-.13.69.69,0,0,0,.05.73.89.89,0,0,1,.14.52v.12a.1.1,0,0,0,.09.1.1.1,0,0,0,.12-.08.57.57,0,0,0,0-.13,1.07,1.07,0,0,1,.12-.63,1.17,1.17,0,0,0,.06-.2A.26.26,0,0,0,29.56,10.85Zm-.15.48c-.24-.12-.25-.24-.21-.38a.16.16,0,0,1,.13-.13.18.18,0,0,1,.18.09C29.6,11,29.57,11.17,29.41,11.33Z"/><path class="cls-2" d="M11.94,12.56c0,.29-.11.56-.15.83s-.06.53-.09.8a.34.34,0,0,1-.11-.29,3,3,0,0,0,0-.52,1.5,1.5,0,0,0-.11-.36c-.11-.26,0-.38.22-.46A.81.81,0,0,1,11.94,12.56Z"/><path class="cls-2" d="M11.88,8.73a.31.31,0,0,0-.32-.19.27.27,0,0,0-.28.23.79.79,0,0,0,0,.3V9.2a.25.25,0,0,0,.21.28.39.39,0,0,0,.48-.34A.82.82,0,0,0,11.88,8.73Zm-.39.58a.65.65,0,0,1,0-.53c.13.05.23.1.23.24A.3.3,0,0,1,11.49,9.31Z"/><path class="cls-2" d="M8.71,14.88v-.15c0-.09,0-.16.11-.2s.24,0,.31.05a.7.7,0,0,1,.14.59.31.31,0,0,1-.2.22.23.23,0,0,1-.33-.17.25.25,0,0,1,0-.07,2.44,2.44,0,0,1,0-.27Z"/><path class="cls-2" d="M11.77,22.15a.21.21,0,0,1-.17,0c0-.37.05-.76,0-1.14a7.33,7.33,0,0,1,0-1.15c.16-.05.21,0,.21.14,0,.39,0,.77,0,1.16a3.93,3.93,0,0,0,0,.84A.22.22,0,0,1,11.77,22.15Z"/><path class="cls-2" d="M24.56,11.63a.87.87,0,0,1-.2-.53,1.73,1.73,0,0,0,0-.32s0-.08-.06-.09a1.1,1.1,0,0,0,0,.18c0,.15,0,.29,0,.44a.94.94,0,0,1-.18.47.3.3,0,0,0,0,.37.5.5,0,0,0,.48.14.22.22,0,0,0,.12-.13A.49.49,0,0,0,24.56,11.63Zm-.09.5a.23.23,0,0,1-.25-.17.34.34,0,0,1,.2-.41A.53.53,0,0,1,24.47,12.13Z"/><path class="cls-2" d="M19,19.51a.2.2,0,0,0,0,.15c.09.08.19,0,.29,0s0,.16-.12.18l-.29,0s0,0,0,0A3.78,3.78,0,0,0,19,18.44a.6.6,0,0,1,.09-.39.14.14,0,0,1,.16.16c0,.34,0,.68,0,1S19.19,19.44,19,19.51Z"/><path class="cls-2" d="M33.09,17.06A4.34,4.34,0,0,1,33,15.64a.38.38,0,0,1,.18,0,.3.3,0,0,1,.26.39.42.42,0,0,1,0,.1,1.4,1.4,0,0,0-.19.69A.68.68,0,0,1,33.09,17.06Z"/><path class="cls-2" d="M13.31,14.42a.59.59,0,0,1,0-.11c0-.19.08-.26.23-.27a.27.27,0,0,1,.32.23.82.82,0,0,1,0,.35.18.18,0,0,1-.15.17l-.17,0c-.2,0-.27-.06-.27-.26Z"/><path class="cls-2" d="M7,15c.14,0,.17,0,.18.11s0,.41,0,.61,0,.42,0,.63a2.15,2.15,0,0,0,.07.56.15.15,0,0,1-.19,0c-.07,0-.06-.1-.06-.16Z"/><path class="cls-2" d="M24.4,13.44l.26.34a.41.41,0,0,1,0,.47.26.26,0,0,1-.45-.07A.6.6,0,0,1,24.4,13.44Z"/><path class="cls-2" d="M17.62,15.43a29.57,29.57,0,0,1-.12,3.77V15.58C17.5,15.52,17.48,15.43,17.62,15.43Z"/><path class="cls-2" d="M11.29,19.28a.65.65,0,0,1,0-.21.24.24,0,0,1,.17-.14.34.34,0,0,1,.38.23.33.33,0,0,1,0,.14.3.3,0,0,1-.45.33.21.21,0,0,1-.13-.13A.45.45,0,0,1,11.29,19.28Z"/><path class="cls-2" d="M29.5,18.47a.23.23,0,0,0-.25-.15.22.22,0,0,0-.21.19.72.72,0,0,0,.06.5.69.69,0,0,1,.11.65.57.57,0,0,0,0,.13s0,0,0,0l.07,0,.06,0c0-.11,0-.22,0-.32,0-.27.11-.53.15-.8A.47.47,0,0,0,29.5,18.47Zm-.06.34a.21.21,0,0,1-.2.15.17.17,0,0,1-.15-.19.24.24,0,0,1,.07-.21.2.2,0,0,1,.21,0c.08,0,.08.11.08.2A.31.31,0,0,1,29.44,18.81Z"/><path class="cls-2" d="M13.69,16.58a.34.34,0,0,0-.41.31.56.56,0,0,0,.06.31.29.29,0,0,0,.27.21.36.36,0,0,0,.33-.19A.59.59,0,0,0,14,17s0,0,0,0A.32.32,0,0,0,13.69,16.58Zm-.06.59c-.12,0-.17-.05-.17-.2s.06-.21.18-.21.18.06.18.19S13.76,17.17,13.63,17.17Z"/><path class="cls-2" d="M33.37,15a.39.39,0,0,1,0,.24.22.22,0,0,1-.39,0,.69.69,0,0,1,0-.56.24.24,0,0,1,.28-.11.2.2,0,0,1,.18.18A.82.82,0,0,1,33.37,15Z"/><path class="cls-2" d="M11.9,23.39v-.05a1.71,1.71,0,0,0,0-.31.26.26,0,0,0-.08-.13.35.35,0,0,0-.54.18.93.93,0,0,0,0,.23c0,.13,0,.28.13.36a.42.42,0,0,0,.42,0A.29.29,0,0,0,11.9,23.39Zm-.2.07c-.06.12-.17.11-.3.09a.55.55,0,0,1,0-.38c0-.06,0-.13.11-.14a.23.23,0,0,1,.21.1A.32.32,0,0,1,11.7,23.46Z"/><path class="cls-2" d="M8.9,11.45c-.25-.28-.23-.53,0-.72a.18.18,0,0,1,.27,0,.35.35,0,0,1,0,.58A1.3,1.3,0,0,1,8.9,11.45Z"/><path class="cls-2" d="M19.34,20.49c0,.19-.07.29-.2.31a.33.33,0,0,1-.36-.22A.35.35,0,0,1,19,20.1a.24.24,0,0,1,.34.15A.69.69,0,0,1,19.34,20.49Z"/><path class="cls-2" d="M27.83,19.78v1.55c0,.07,0,.12-.12.11a.89.89,0,0,1-.07-.4v-.9a.46.46,0,0,0-.11-.38A.32.32,0,0,1,27.83,19.78Z"/><path class="cls-2" d="M22.58,16.2a6.13,6.13,0,0,1,.05,2.18A5.34,5.34,0,0,1,22.58,16.2Z"/><path class="cls-2" d="M19,15c.19-.07.28,0,.26.12a6.77,6.77,0,0,0,0,.78.73.73,0,0,1-.07.29c0,.05,0,.1-.12.08a.11.11,0,0,1-.07-.12V15Z"/><path class="cls-2" d="M7,17.62c.1,0,.12.05.14.12a1.24,1.24,0,0,1,.07.6,2.62,2.62,0,0,0,0,.74.17.17,0,0,1,0,.12.5.5,0,0,1-.21,0Z"/><path class="cls-2" d="M28.21,23.12V23s0,0,0-.06a.35.35,0,0,0-.56-.18.43.43,0,0,0-.16.41.39.39,0,0,0,.43.39c.21,0,.31-.13.31-.39v-.09Zm-.2.24a.16.16,0,0,1-.28.05.42.42,0,0,1-.07-.42.48.48,0,0,1,.15-.2A.42.42,0,0,1,28,23.36Z"/><path class="cls-2" d="M29.39,20.09c-.17-.09-.3,0-.33.18a1.08,1.08,0,0,0,0,.18h0a1.28,1.28,0,0,0,0,.19c0,.16.07.21.24.24a.28.28,0,0,0,.32-.16A.45.45,0,0,0,29.39,20.09Zm.08.51a.16.16,0,0,1-.15.09c-.07,0-.1-.05-.12-.1s0-.21.09-.34C29.51,20.33,29.56,20.44,29.47,20.6Z"/><path class="cls-2" d="M13.89,10.25a1.51,1.51,0,0,1-.56,0,2.13,2.13,0,0,1,.06-.45c0-.13.13-.17.28-.16a.23.23,0,0,1,.23.22A2.2,2.2,0,0,1,13.89,10.25Z"/><path class="cls-2" d="M16.23,10.19a32.85,32.85,0,0,1,0-4.21Z"/><path class="cls-2" d="M35.47,17.58s0,.08,0,.12v2c0,.07,0,.16-.09.16s0-.07,0-.11c0-.65,0-1.31,0-2C35.39,17.68,35.4,17.62,35.47,17.58Z"/><path class="cls-2" d="M35.49,15.58a1.24,1.24,0,0,1,.07.54,4.41,4.41,0,0,0,0,.89.37.37,0,0,1,0,.18s-.1,0-.18,0c0-.52,0-1.05,0-1.58C35.4,15.61,35.42,15.59,35.49,15.58Z"/><path class="cls-2" d="M13.6,21s0,0,0,.06h0S13.61,21,13.6,21Zm.36-.71a.24.24,0,0,0-.21-.16.36.36,0,0,0-.36.14c-.08.11,0,.21,0,.32a1.88,1.88,0,0,1,.19.41.76.76,0,0,1,0-.11l.08,0A.39.39,0,0,0,14,20.27Zm-.25.39c-.12,0-.17-.06-.17-.2s.06-.21.17-.21.15,0,.15.2S13.82,20.66,13.71,20.66Z"/><path class="cls-2" d="M24.5,12.51a.32.32,0,0,0-.34,0,.41.41,0,0,0-.09.52.94.94,0,0,0,.32.27,1,1,0,0,0,.27-.43A.35.35,0,0,0,24.5,12.51Zm-.07.57-.08,0c-.2-.08-.23-.18-.09-.34l.11-.13C24.55,12.76,24.56,12.84,24.43,13.08Z"/><path class="cls-2" d="M11.63,14.49s.07-.05.11,0a11.49,11.49,0,0,1,0,1.8c-.08,0-.13,0-.13-.07a1.34,1.34,0,0,1,0-.2Z"/><path class="cls-2" d="M13.24,13.53a.12.12,0,0,1,.08,0c.13,0,.14,0,.13-.14s0-.26.19-.33c.19.22.11.49.17.72A.38.38,0,0,1,13.24,13.53Z"/><path class="cls-2" d="M11.58,10.53c.1,0,.15,0,.16.07V12a.57.57,0,0,1,0,.13s0,0-.06,0-.07,0-.07,0a1.21,1.21,0,0,1,0-.19c0-.23,0-.46,0-.68A5.94,5.94,0,0,0,11.58,10.53Z"/><path class="cls-2" d="M32.86,19.39c0-.05,0-.09,0-.13a.26.26,0,0,1,.23-.21.23.23,0,0,1,.21.13.48.48,0,0,1,0,.39l0,0a.47.47,0,0,1-.35,0c-.09,0-.09-.09-.1-.16a.27.27,0,0,1,0-.09Z"/><path class="cls-2" d="M7.21,14.17c-.2,0-.22,0-.22-.17s0-.5,0-.75A.69.69,0,0,1,7,13a.08.08,0,0,1,.1-.06c.06,0,.07,0,.07.09Z"/><path class="cls-2" d="M18.74,8.88c.05-.13.09-.24.14-.35s.06-.16.16-.16a.26.26,0,0,1,.25.1.36.36,0,0,1,0,.4.21.21,0,0,1-.23.08l-.15,0Z"/><path class="cls-2" d="M20.93,6.85a.67.67,0,0,1-.24-.58,5.88,5.88,0,0,0,0-.73.3.3,0,0,1,.23.32,3,3,0,0,1,0,.6A2.54,2.54,0,0,0,20.93,6.85Z"/><path class="cls-2" d="M33.31,18a.45.45,0,0,1-.33.08c-.09,0-.12-.07-.1-.16a.36.36,0,0,1,0-.09c.06-.12.1-.23,0-.35a.23.23,0,0,1,.19,0c.14,0,.2.05.21.19Z"/><path class="cls-2" d="M16,11.53a.5.5,0,0,0,.12-.4s0,0,.05,0a3.31,3.31,0,0,0,.17.56,1,1,0,0,1,0,.45.44.44,0,0,1-.47,0c0-.1.07-.13.14-.16a.21.21,0,0,0,.08-.38A.65.65,0,0,0,16,11.53Z"/><path class="cls-2" d="M17.77,10.24a.56.56,0,0,1-.34,0c.15-.59,0-1.18.12-1.77a.28.28,0,0,1,.06.23c0,.33,0,.65,0,1l0,.32A.37.37,0,0,0,17.77,10.24Z"/><path class="cls-2" d="M13.35,12.93a1.46,1.46,0,0,0,.19-.76,1.14,1.14,0,0,1,.06-.48.49.49,0,0,1,.12.41,1.25,1.25,0,0,0,.1.78A.69.69,0,0,0,13.35,12.93Z"/><path class="cls-2" d="M30.64,21.28a3,3,0,0,1,.11-1.19,4.59,4.59,0,0,1,.1,1.19C30.78,21.34,30.71,21.31,30.64,21.28Z"/><path class="cls-2" d="M13.69,19.9c-.1,0-.13,0-.14-.08v-1.4a.05.05,0,0,1,0-.05.07.07,0,0,1,.08,0s0,0,0,.05Z"/><path class="cls-2" d="M8.75,11.88c.32.07.34.06.4-.27a.41.41,0,0,1,.13.52.21.21,0,0,1-.22.11.28.28,0,0,1-.27-.14A.33.33,0,0,1,8.75,11.88Z"/><path class="cls-2" d="M20.92,8.19c-.24,0-.29,0-.27-.19s0-.46.05-.69a.14.14,0,0,1,.18.12A4.78,4.78,0,0,1,20.92,8.19Z"/><path class="cls-2" d="M13.69,23.26V24.9A2.31,2.31,0,0,1,13.69,23.26Z"/><path class="cls-2" d="M13.68,15.17c0,.05,0,.13.08.16a.17.17,0,0,1,.12.1c-.1.23-.28.3-.45.18a.21.21,0,0,1-.12-.22.24.24,0,0,1,.19-.17C13.56,15.2,13.63,15.23,13.68,15.17Z"/><path class="cls-2" d="M19.06,9.15c.24.31.09.66.14,1-.2,0-.23-.06-.25-.23A2,2,0,0,1,19.06,9.15Z"/><path class="cls-2" d="M12,10.21a.43.43,0,0,1-.42,0,1,1,0,0,0-.08-.61c.26,0,.32,0,.34.23A.38.38,0,0,0,12,10.21Z"/><path class="cls-2" d="M27.77,19.25c-.1,0-.09-.07-.09-.12V18.4c0-.23,0-.45,0-.68,0-.06,0-.12.08-.14Z"/><path class="cls-2" d="M27.78,10.69v1.37l0,.06A2.06,2.06,0,0,1,27.78,10.69Z"/><path class="cls-2" d="M32.91,10.09a.8.8,0,0,1,.36.11c0,.11-.16.07-.18.16s.06.08.11.11,0,0,0,.08a.07.07,0,0,1,0,0,.36.36,0,0,1-.27,0Z"/><path class="cls-2" d="M35.41,23.23a2,2,0,0,1,0-.92c.15.07.14.22.16.34A.68.68,0,0,1,35.41,23.23Z"/><path class="cls-2" d="M35.5,20.16v1.39c-.07,0-.15,0-.14-.07,0-.29,0-.59,0-.89A.81.81,0,0,1,35.5,20.16Z"/><path class="cls-2" d="M13.56,8.23a2,2,0,0,1,0-1A1,1,0,0,1,13.56,8.23Z"/><path class="cls-2" d="M20.6,5.22a1,1,0,0,0,.13-.53c.14,0,.19.06.19.21a1.26,1.26,0,0,0,0,.33A.53.53,0,0,1,20.6,5.22Z"/><path class="cls-2" d="M11.6,17.2v-.79c.05,0,.07,0,.08.05a.81.81,0,0,1,.07.61A.13.13,0,0,1,11.6,17.2Z"/><path class="cls-2" d="M29.28,17.51c.11.2,0,.42.12.61-.13.08-.15.08-.34,0C29.21,18,29.19,17.73,29.28,17.51Z"/><path class="cls-2" d="M33.32,18.33c-.31.11-.32.15-.22.47,0,0-.06,0-.09,0a.11.11,0,0,1-.1,0,1.76,1.76,0,0,1,0-.23c0-.2.09-.27.29-.25Z"/><path class="cls-2" d="M17.55,5.51a7.31,7.31,0,0,1,0,1.55A8.92,8.92,0,0,1,17.55,5.51Z"/><path class="cls-2" d="M9,23.14a2.86,2.86,0,0,1,0-.92A.94.94,0,0,1,9,23.14Z"/><path class="cls-2" d="M11.68,18.44a1.67,1.67,0,0,1,0-.94A1.22,1.22,0,0,1,11.68,18.44Z"/><path class="cls-2" d="M35.62,14.84a1.82,1.82,0,0,0,0,.45c-.15,0-.15,0-.21-.43C35.43,14.82,35.51,14.84,35.62,14.84Z"/><path class="cls-2" d="M17.77,21.28c-.22.07-.19.24-.18.39a.31.31,0,0,1,0,.19.71.71,0,0,1-.07-.53C17.49,21.23,17.56,21.22,17.77,21.28Z"/><path class="cls-2" d="M20.73,10.7c.28.18.25.41,0,.58A3.77,3.77,0,0,1,20.73,10.7Z"/><path class="cls-2" d="M29.27,21.86a1,1,0,0,1,0-.73A.94.94,0,0,1,29.27,21.86Z"/><path class="cls-2" d="M27.76,21.74a1.13,1.13,0,0,1,0,.75A.86.86,0,0,1,27.76,21.74Z"/><path class="cls-2" d="M13.66,11.24a.72.72,0,0,1,0-.61Z"/><path class="cls-3" d="M17.61,10.73v.78c-.06,0-.07,0-.07,0v-.73a.05.05,0,0,1,0-.06S17.58,10.72,17.61,10.73Z"/><path class="cls-2" d="M13.63,22.57V21.7A1.51,1.51,0,0,1,13.63,22.57Z"/><path class="cls-2" d="M24.07,5.31a.35.35,0,0,1,.4.05C24.32,5.46,24.26,5.45,24.07,5.31Z"/><path class="cls-2" d="M24.27,18.06V16.87h0v1.2Z"/><path class="cls-2" d="M17.63,20.15c.1.16.09.18,0,.32A.36.36,0,0,1,17.63,20.15Z"/><path class="cls-2" d="M25.48,23.39c.11,0,.23.08.32,0A.33.33,0,0,1,25.48,23.39Z"/><path class="cls-2" d="M17.46,19.71c.08-.07.15,0,.22,0C17.58,19.8,17.58,19.8,17.46,19.71Z"/><path class="cls-4" d="M13.62,21h0c.06.1.06.1,0,.24C13.59,21.2,13.64,21.12,13.62,21Z"/><path class="cls-2" d="M33.3,18.75c0-.05.05-.06.08,0a0,0,0,0,1,0,0S33.34,18.77,33.3,18.75Z"/><path class="cls-4" d="M17.61,10.73s0,0,0-.06S17.59,10.72,17.61,10.73Z"/><path class="cls-1" d="M30.54,23.54c0-.15,0-.2.16-.21s.16.05.16.17-.07.23-.16.23S30.55,23.67,30.54,23.54Z"/><path class="cls-1" d="M27.87,13.08c-.19-.11-.22-.19-.12-.35s.05-.09.11-.08a.16.16,0,0,1,.13.13A.34.34,0,0,1,27.87,13.08Z"/><path class="cls-1" d="M18.94,13.28a.88.88,0,0,1-.13-.28.16.16,0,0,1,.06-.2.25.25,0,0,1,.26,0,.23.23,0,0,1,0,.3A.36.36,0,0,1,18.94,13.28Z"/><path class="cls-1" d="M26,17.75a1,1,0,0,1,0,.17.16.16,0,0,1-.18.15.15.15,0,0,1-.16-.15,2.41,2.41,0,0,1,0-.38.16.16,0,0,1,.16-.15.15.15,0,0,1,.18.15,1.47,1.47,0,0,1,0,.21Z"/><path class="cls-1" d="M9,20.22c.21.15.22.24,0,.47a.27.27,0,0,1-.2-.22A.23.23,0,0,1,9,20.22Z"/><path class="cls-1" d="M29.3,10.2c-.21-.23-.22-.35-.06-.57a.2.2,0,0,1,.21.18C29.49,10,29.45,10.06,29.3,10.2Z"/><path class="cls-1" d="M20.71,9.26a.46.46,0,0,1-.32-.39.38.38,0,0,1,0-.15c0-.12.1-.18.2-.17a.18.18,0,0,1,.16.18A1.21,1.21,0,0,1,20.71,9.26Z"/><path class="cls-1" d="M24.41,8.53c0,.16,0,.22-.17.22s-.18-.07-.18-.21.06-.21.19-.21S24.41,8.38,24.41,8.53Z"/><path class="cls-1" d="M20.9,18.48c-.21-.1-.26-.19-.21-.36s0-.13.13-.14a.19.19,0,0,1,.19.11C21.06,18.2,21,18.32,20.9,18.48Z"/><path class="cls-1" d="M30.81,22.05c-.24-.14-.26-.24-.1-.45C30.93,21.64,30.93,21.86,30.81,22.05Z"/><path class="cls-1" d="M29.41,11.33c-.24-.12-.25-.24-.21-.38a.16.16,0,0,1,.13-.13.18.18,0,0,1,.18.09C29.6,11,29.57,11.17,29.41,11.33Z"/><path class="cls-1" d="M11.48,8.78c.13.05.23.1.23.24a.3.3,0,0,1-.22.29A.65.65,0,0,1,11.48,8.78Z"/><path class="cls-1" d="M24.42,11.55a.53.53,0,0,1,0,.58.23.23,0,0,1-.25-.17A.34.34,0,0,1,24.42,11.55Z"/><path class="cls-1" d="M29.45,18.72a.31.31,0,0,1,0,.09.21.21,0,0,1-.2.15.17.17,0,0,1-.15-.19.24.24,0,0,1,.07-.21.2.2,0,0,1,.21,0C29.45,18.55,29.45,18.63,29.45,18.72Z"/><path class="cls-1" d="M13.46,17c0-.15.06-.21.18-.21s.18.06.18.19-.06.22-.19.22S13.46,17.12,13.46,17Z"/><path class="cls-1" d="M11.4,23.55a.55.55,0,0,1,0-.38c0-.06,0-.13.11-.14a.23.23,0,0,1,.21.1.32.32,0,0,1,0,.33C11.64,23.58,11.53,23.57,11.4,23.55Z"/><path class="cls-1" d="M27.81,22.79a.43.43,0,0,1,.2.57.16.16,0,0,1-.28.05.41.41,0,0,1-.07-.42A.48.48,0,0,1,27.81,22.79Z"/><path class="cls-1" d="M29.29,20.25c.22.08.27.19.18.35a.16.16,0,0,1-.15.09c-.07,0-.1-.05-.12-.1S29.16,20.38,29.29,20.25Z"/><path class="cls-1" d="M13.86,20.45c0,.16,0,.21-.15.21s-.17-.06-.17-.2.06-.21.17-.21S13.86,20.29,13.86,20.45Z"/><path class="cls-1" d="M24.43,13.08l-.08,0c-.2-.08-.23-.18-.09-.34l.11-.13C24.55,12.76,24.56,12.84,24.43,13.08Z"/></g></g></svg>