<svg version="1.1" id="Layer_1" xmlns="http://www.w3.org/2000/svg" xmlns:xlink="http://www.w3.org/1999/xlink" x="0px" y="0px"
	 width="100%" viewBox="0 0 154 153" enable-background="new 0 0 154 153" xml:space="preserve">
<path fill="#070808" opacity="1.000000" stroke="none" 
	d="
M83.311813,153.774200 
	C80.299988,154.000000 77.599968,154.000000 74.449982,154.000000 
	C66.175255,153.034424 58.248127,153.280121 50.649071,150.244263 
	C26.383783,140.550201 10.290856,123.439720 2.628784,98.471901 
	C1.456692,94.652489 1.446422,90.615829 1.226083,86.313248 
	C1.000000,81.643097 1.000000,77.286201 1.000000,72.464645 
	C1.801044,63.966026 2.093293,55.903774 5.274722,48.226921 
	C14.722844,25.428406 31.509989,10.666700 54.529198,2.644841 
	C57.648643,1.557761 61.052048,1.502202 64.689857,1.225453 
	C73.354233,1.000000 81.708466,1.000000 90.531349,1.000000 
	C120.741280,5.110687 139.659851,22.811815 151.532074,49.295673 
	C153.958755,54.709015 154.451355,60.529377 154.775360,66.693726 
	C155.000000,73.021156 155.000000,79.042305 155.000000,85.531731 
	C153.807510,104.439682 145.362473,119.509956 132.866943,132.488678 
	C119.486000,146.387024 103.247299,154.034012 83.311813,153.774200 
z"/>
<path fill="#FFFFFF" opacity="1.000000" stroke="none" 
	d="
M83.468658,154.000000 
	C85.817177,151.348114 89.512428,152.935501 92.718086,152.328049 
	C109.326454,149.180847 123.337807,141.722565 134.350861,129.046188 
	C145.018707,116.767166 152.520157,102.825882 154.610962,86.143524 
	C155.000000,107.598747 154.929504,129.197998 155.085190,150.795624 
	C155.105682,153.639923 154.414597,154.090134 151.723724,154.074539 
	C129.128860,153.943604 106.532928,154.000000 83.468658,154.000000 
z"/>
<path fill="#FFFFFF" opacity="1.000000" stroke="none" 
	d="
M1.000000,86.468658 
	C2.399374,91.513237 3.285015,97.220940 5.285858,102.506493 
	C14.612396,127.144051 31.972883,143.343704 57.252800,151.010208 
	C62.631592,152.641388 68.123680,153.066132 73.839012,153.597900 
	C50.739292,154.000000 27.478186,153.936356 4.218401,154.082901 
	C1.404542,154.100647 0.905324,153.458420 0.923099,150.737610 
	C1.062029,129.471588 1.000000,108.204247 1.000000,86.468658 
z"/>
<path fill="#FFFFFF" opacity="1.000000" stroke="none" 
	d="
M64.531342,1.000000 
	C56.794525,3.373205 48.587933,5.627536 41.063084,9.949097 
	C20.789896,21.592089 7.704087,38.363663 2.856419,61.481522 
	C2.134061,64.926346 2.412675,68.318314 1.399764,71.842194 
	C1.000000,49.407028 1.064826,26.813631 0.917481,4.221620 
	C0.899181,1.415790 1.529861,0.902558 4.258348,0.922299 
	C24.192270,1.066524 44.127716,1.000000 64.531342,1.000000 
z"/>
<path fill="#FFFFFF" opacity="1.000000" stroke="none" 
	d="
M155.000000,66.531342 
	C152.814743,60.733273 152.246857,54.058842 149.522415,47.872849 
	C143.115494,33.325592 133.353653,21.761395 120.163445,13.023169 
	C111.355103,7.187835 101.869957,3.039971 91.137115,1.384036 
	C111.264671,1.000000 131.529922,1.074279 151.793335,0.914962 
	C154.630920,0.892653 155.093323,1.575583 155.075333,4.272558 
	C154.937973,24.868517 155.000000,45.465809 155.000000,66.531342 
z"/>
<path fill="#3FED9C" opacity="1.000000" stroke="none" 
	d="
M58.991329,13.950452 
	C77.950714,8.326032 95.429016,10.709928 112.117516,20.511795 
	C127.952927,29.812603 138.252457,43.501293 142.320541,61.039936 
	C147.513596,83.428612 143.169357,103.850815 126.609962,121.034302 
	C116.643585,131.376297 105.111656,138.537704 91.074257,141.438766 
	C70.348412,145.722092 51.968517,140.629807 35.708759,127.235191 
	C22.364470,116.242287 14.587959,101.855026 12.310555,85.106560 
	C9.931314,67.609169 14.386992,51.340965 25.362350,37.090664 
	C34.021820,25.847294 44.914909,17.966909 58.991329,13.950452 
z"/>
<path fill="#070808" opacity="1.000000" stroke="none" 
	d="
M98.805634,18.027832 
	C109.260468,22.006989 118.060692,27.741873 125.350647,35.813557 
	C144.568100,57.091797 146.261795,87.434372 129.184067,110.386696 
	C118.463974,124.794411 104.215126,133.720200 86.668434,135.723434 
	C68.151077,137.837479 50.462105,134.818451 35.820541,121.427322 
	C24.130604,110.735748 17.979271,97.946777 15.741672,82.103302 
	C11.321353,50.804943 35.620838,21.787914 63.921288,16.211123 
	C75.355438,13.957947 87.111427,13.573249 98.805634,18.027832 
z"/>
<path fill="#3FED9C" opacity="1.000000" stroke="none" 
	d="
M92.899628,85.374313 
	C95.698395,85.858696 98.489418,86.299919 100.890495,87.512985 
	C104.083313,89.126045 107.374886,91.008492 107.029312,95.536911 
	C106.947289,96.611786 106.703140,98.088142 108.591019,97.945061 
	C110.157578,97.826340 110.965775,96.884033 110.976082,95.322716 
	C110.996193,92.276443 110.981979,89.229958 111.575035,86.132874 
	C113.544037,88.647423 113.984314,91.499298 114.131401,94.364861 
	C121.375702,89.386192 119.033806,82.034279 119.148903,75.307281 
	C119.204231,72.073708 119.255135,68.839050 119.233894,65.605370 
	C119.177788,57.062954 119.052040,48.520859 119.036308,39.978485 
	C119.034264,38.867699 118.270241,36.973728 120.547745,37.088516 
	C122.922920,37.208229 120.919304,38.766071 121.114052,39.588127 
	C122.821388,46.795357 122.222908,54.097992 121.196693,61.313637 
	C120.890091,63.469425 122.160286,64.991005 122.085487,67.020157 
	C121.629791,79.381859 121.704597,91.767365 120.024834,104.061996 
	C119.962059,104.521461 120.124886,105.011757 120.204041,105.664742 
	C123.659935,104.216644 123.618843,100.240593 125.854645,97.886398 
	C128.119904,99.513794 126.450867,100.993523 125.910835,102.217491 
	C119.903992,115.831947 109.215790,124.125877 95.250717,128.282120 
	C77.963799,133.427002 61.321808,132.252792 45.971504,121.968193 
	C41.034966,118.660744 36.162052,115.031960 33.072433,109.904152 
	C27.875599,101.279030 27.341700,91.481262 26.802858,81.144638 
	C30.056332,82.959190 30.015179,86.720375 33.111092,88.531815 
	C33.111092,84.258415 33.111092,80.246300 33.111092,75.527733 
	C36.483887,77.736977 34.836891,80.636223 34.719383,82.305504 
	C34.340210,87.692032 35.308117,91.435219 40.200748,94.823349 
	C47.156616,99.640236 53.822701,104.829620 61.834553,108.731850 
	C62.036961,102.107735 59.395596,96.343231 57.662155,90.456284 
	C56.868900,87.762306 56.415291,84.889336 57.214851,82.698219 
	C58.646431,78.775101 60.133026,75.120842 59.053585,70.866806 
	C58.781284,69.793678 59.339729,68.921570 60.712860,69.058876 
	C62.183155,69.205894 61.967094,70.349525 61.980103,71.279564 
	C62.020451,74.165062 62.094795,77.055367 61.973934,79.936165 
	C61.879860,82.178635 63.498085,83.306900 64.912376,84.210289 
	C66.668419,85.331947 67.212616,83.041840 68.182076,82.228584 
	C70.466141,80.312553 72.341476,77.856056 74.773300,76.188637 
	C76.318405,75.129204 75.575844,74.622177 75.286308,73.510468 
	C74.842697,71.807144 74.178421,69.092110 76.168457,68.677727 
	C78.837471,68.121971 77.458168,71.284164 78.308380,72.590126 
	C80.946899,70.560509 80.946899,70.560509 82.417686,59.470856 
	C82.574989,59.525593 82.867752,59.574558 82.870354,59.635883 
	C83.121567,65.532898 87.980858,67.843933 91.622322,71.221504 
	C96.108444,75.382545 96.198532,78.376205 92.534264,84.075729 
	C92.365578,87.319664 89.561485,87.159935 87.975365,88.317894 
	C86.558266,89.352455 84.112617,90.210945 85.479095,92.353844 
	C86.539261,94.016403 88.107864,92.185951 89.312820,91.492020 
	C90.829041,90.618813 92.516090,89.684555 93.754089,91.448593 
	C95.259430,93.593575 96.859543,95.986221 95.588661,98.835648 
	C94.474907,101.332809 92.471664,103.127563 90.215378,104.610191 
	C89.521561,105.066093 88.330574,105.544579 87.965561,104.766594 
	C86.409111,101.449341 83.165092,102.379471 80.622009,101.568375 
	C73.626228,99.337128 71.692001,92.384270 76.395981,86.416328 
	C79.150612,82.921532 83.210953,80.518845 84.835724,75.994263 
	C81.104080,78.834915 77.117325,81.289169 73.744606,84.602310 
	C68.856781,89.403801 65.714729,94.747910 67.196632,101.977379 
	C67.626732,104.075645 67.312004,106.297806 67.313988,108.463264 
	C67.322693,117.958992 75.858437,122.983559 84.169167,118.169441 
	C90.659492,114.409821 95.047607,108.437881 99.298111,102.448677 
	C100.838478,100.278229 99.919952,98.479187 98.003510,96.832825 
	C94.625298,93.930717 92.440491,90.358864 92.899628,85.374313 
z"/>
<path fill="#3FED9C" opacity="1.000000" stroke="none" 
	d="
M112.755463,78.718948 
	C109.197464,76.254562 111.303825,72.837784 111.207787,70.073051 
	C110.757538,57.111809 111.001694,44.126221 111.024841,31.149378 
	C111.026161,30.411335 110.837036,29.464245 112.604378,29.002554 
	C113.852905,45.104630 112.782394,61.067574 113.047081,77.464661 
	C113.107452,78.194778 113.132690,78.461983 112.755463,78.718948 
z"/>
<path fill="#3FED9C" opacity="1.000000" stroke="none" 
	d="
M95.999969,49.198795 
	C96.410255,54.601479 95.029991,59.560898 96.837242,64.523323 
	C97.551765,66.485268 96.200592,68.846733 94.052742,71.616425 
	C94.052742,53.768719 94.052742,36.981995 94.052742,20.195271 
	C94.701820,20.177748 95.350891,20.160227 95.999969,20.142704 
	C95.999969,29.669373 95.999969,39.196041 95.999969,49.198795 
z"/>
<path fill="#3FED9C" opacity="1.000000" stroke="none" 
	d="
M83.999969,44.972851 
	C83.514069,49.514080 85.052155,53.840393 82.002464,57.576416 
	C82.002464,44.782990 82.002464,31.989565 82.002464,19.196138 
	C82.668297,19.186758 83.334137,19.177376 83.999969,19.167995 
	C83.999969,27.604921 83.999969,36.041847 83.999969,44.972851 
z"/>
<path fill="#3FED9C" opacity="1.000000" stroke="none" 
	d="
M70.998032,35.116680 
	C69.867668,39.287762 72.041611,43.159134 70.503998,46.840290 
	C68.431992,46.663387 69.042130,45.172611 69.034363,44.214741 
	C68.974930,36.888870 68.960434,29.561863 69.040138,22.236385 
	C69.053528,21.005754 68.140846,18.831255 70.773468,19.088318 
	C73.536438,19.358112 71.630310,21.968277 71.539375,22.407574 
	C70.696693,26.478287 71.122368,30.552095 70.998032,35.116680 
z"/>
<path fill="#3FED9C" opacity="1.000000" stroke="none" 
	d="
M76.639114,43.441162 
	C79.409180,47.961899 77.204094,52.443390 77.412361,56.783646 
	C77.514297,58.907967 77.071266,61.280048 77.163010,63.550488 
	C77.191902,64.265511 79.439659,65.263687 76.602547,65.436295 
	C74.613762,65.557281 75.019798,64.528313 75.009010,63.507835 
	C74.982826,61.031540 74.866676,58.545910 75.030457,56.080231 
	C75.294365,52.107349 73.595528,48.146942 75.029778,44.168823 
	C75.288498,43.451237 75.583420,43.055843 76.639114,43.441162 
z"/>
<path fill="#3FED9C" opacity="1.000000" stroke="none" 
	d="
M35.129608,64.274628 
	C34.528889,68.032463 36.551285,72.153465 31.973923,74.644234 
	C32.309650,70.622269 32.735970,66.768867 32.914272,62.904030 
	C33.019535,60.622326 33.465832,58.270336 32.542816,56.039074 
	C32.025623,54.788834 31.212793,53.359646 33.384079,53.112061 
	C35.623104,52.856743 34.924278,54.769413 34.969120,55.903816 
	C35.073742,58.550354 35.021442,61.203102 35.129608,64.274628 
z"/>
<path fill="#3FED9C" opacity="1.000000" stroke="none" 
	d="
M128.528336,56.406204 
	C128.211212,55.420830 127.719482,54.631874 128.544403,54.344082 
	C130.198273,53.767090 129.971954,55.171085 129.974716,56.048302 
	C129.990448,61.041180 130.278214,66.067032 129.788605,71.013885 
	C129.530792,73.618538 131.236038,76.391380 128.591873,78.851761 
	C128.082535,71.514832 127.673325,64.181267 128.528336,56.406204 
z"/>
<path fill="#3FED9C" opacity="1.000000" stroke="none" 
	d="
M59.000038,58.950203 
	C59.000301,55.302067 58.935062,52.141544 59.035980,48.986336 
	C59.071819,47.865860 58.310234,45.904900 60.549049,46.115456 
	C63.275047,46.371834 61.107655,47.921078 61.098019,48.918224 
	C61.051460,53.736156 61.063057,58.554905 60.980579,63.372101 
	C60.954651,64.886322 61.400421,66.550468 59.000038,67.869820 
	C59.000038,65.059853 59.000038,62.249882 59.000038,58.950203 
z"/>
<path fill="#3FED9C" opacity="1.000000" stroke="none" 
	d="
M65.054710,51.014343 
	C67.753296,53.746811 65.361565,55.984928 65.129028,58.359947 
	C64.693245,62.810829 65.003593,67.334770 64.058060,71.855293 
	C64.058060,62.406361 64.058060,52.957428 64.058060,43.370758 
	C66.899010,45.605606 66.620171,48.044205 65.054710,51.014343 
z"/>
<path fill="#3FED9C" opacity="1.000000" stroke="none" 
	d="
M69.000069,71.639091 
	C69.000038,65.847710 69.000038,60.511547 69.000038,55.175385 
	C69.459572,55.154713 69.919113,55.134041 70.378647,55.113365 
	C71.667725,57.355820 70.858696,59.961792 70.964722,62.377548 
	C71.109756,65.682320 71.053818,68.998856 70.987679,72.308418 
	C70.963364,73.525009 72.614784,75.714363 70.123810,75.704933 
	C68.078537,75.697189 69.408623,73.338554 69.000069,71.639091 
z"/>
<path fill="#3FED9C" opacity="1.000000" stroke="none" 
	d="
M107.439590,48.045280 
	C107.762413,55.124222 109.200081,62.084747 105.545677,68.461166 
	C106.995346,61.522018 105.339233,54.478729 106.288589,47.545490 
	C106.290024,47.535042 106.532829,47.535873 106.652649,47.568768 
	C106.811707,47.612438 106.960655,47.692894 107.439590,48.045280 
z"/>
<path fill="#3FED9C" opacity="1.000000" stroke="none" 
	d="
M100.664955,46.197029 
	C103.655609,54.046658 100.996269,62.193119 101.631981,70.256165 
	C101.035347,62.290020 99.328102,54.396996 100.664955,46.197029 
z"/>
<path fill="#3FED9C" opacity="1.000000" stroke="none" 
	d="
M88.000290,63.769531 
	C86.654167,59.552521 87.828415,55.753571 87.992844,51.952175 
	C88.044296,50.762871 88.246101,49.377247 89.579826,49.490307 
	C90.896187,49.601891 91.383926,51.114986 90.879585,52.224564 
	C88.809662,56.778645 90.232567,61.891716 88.290741,66.890312 
	C88.165192,65.719696 88.082939,64.952797 88.000290,63.769531 
z"/>
<path fill="#3FED9C" opacity="1.000000" stroke="none" 
	d="
M49.141945,53.370644 
	C49.620739,49.816429 48.233521,46.344490 50.558270,43.162212 
	C52.864750,47.573792 51.170254,52.166939 51.630123,56.551586 
	C51.697163,57.190781 50.824760,58.001320 49.885063,57.857323 
	C48.671818,57.671402 49.077278,56.637215 49.072773,55.894630 
	C49.068413,55.176273 50.142929,54.539829 49.141945,53.370644 
z"/>
<path fill="#3FED9C" opacity="1.000000" stroke="none" 
	d="
M32.846779,51.882919 
	C31.179932,47.385582 33.835377,43.443886 33.802910,39.117996 
	C35.556908,42.763638 34.763355,46.608131 35.201954,50.309624 
	C35.310810,51.228291 34.571346,52.191635 32.846779,51.882919 
z"/>
<path fill="#3FED9C" opacity="1.000000" stroke="none" 
	d="
M43.028469,66.297318 
	C42.568779,60.164352 43.881355,54.384190 42.256283,48.733444 
	C41.840069,47.286175 42.670273,46.323082 43.844734,46.204472 
	C45.331631,46.054310 45.171581,47.588818 44.932484,48.353931 
	C43.067493,54.321793 44.460342,60.440662 43.954998,66.462303 
	C43.941872,66.618713 43.902840,66.786697 43.827030,66.921875 
	C43.341576,67.787468 43.277248,66.928085 43.028469,66.297318 
z"/>
<path fill="#3FED9C" opacity="1.000000" stroke="none" 
	d="
M89.995789,28.710911 
	C86.657379,31.796219 91.704506,35.107101 89.115524,38.218338 
	C85.892639,33.423649 87.879143,28.778351 88.483665,23.649799 
	C90.614746,25.107128 89.766281,26.862125 89.995789,28.710911 
z"/>
<path fill="#3FED9C" opacity="1.000000" stroke="none" 
	d="
M50.966064,28.429892 
	C52.472305,33.018768 51.699898,37.178364 50.680130,41.726532 
	C48.218346,36.826820 49.085045,32.233742 50.376423,27.633417 
	C50.382565,27.611534 50.594555,27.598732 50.647243,27.648529 
	C50.765282,27.760078 50.843433,27.913828 50.966064,28.429892 
z"/>
<path fill="#3FED9C" opacity="1.000000" stroke="none" 
	d="
M44.993225,71.177422 
	C45.496147,74.689674 43.173546,77.582352 44.070782,80.854111 
	C42.655437,77.283257 43.186947,73.387520 42.345409,69.759972 
	C42.161888,68.968880 44.708797,68.332611 44.993225,71.177422 
z"/>
<path fill="#3FED9C" opacity="1.000000" stroke="none" 
	d="
M107.977997,34.324699 
	C106.884392,36.384575 106.264076,34.838577 106.212578,34.267704 
	C105.968414,31.560961 105.573097,28.802221 106.801407,25.128923 
	C108.734215,28.523834 107.646591,31.321972 107.977997,34.324699 
z"/>
<path fill="#3FED9C" opacity="1.000000" stroke="none" 
	d="
M27.993410,59.758453 
	C27.742422,60.736008 27.625710,61.583729 27.222263,61.754650 
	C26.481810,62.068348 26.051735,61.384987 26.071596,60.680233 
	C26.133005,58.501282 25.541361,56.239449 26.728004,53.596558 
	C28.683445,55.564812 27.692028,57.594246 27.993410,59.758453 
z"/>
<path fill="#3FED9C" opacity="1.000000" stroke="none" 
	d="
M101.959747,73.427917 
	C101.990143,76.353699 101.990143,78.839851 101.990143,81.326004 
	C100.694107,78.723694 99.505783,76.113869 100.103943,73.209724 
	C100.377365,71.882217 101.143768,71.622978 101.959747,73.427917 
z"/>
<path fill="#3FED9C" opacity="1.000000" stroke="none" 
	d="
M59.999962,30.925320 
	C59.999962,33.356720 59.999962,35.323513 59.999962,37.290302 
	C59.769161,37.289810 59.538364,37.289318 59.307564,37.288826 
	C59.307564,32.390415 59.307564,27.492006 59.307564,22.593597 
	C59.538364,22.590540 59.769161,22.587484 59.999962,22.584427 
	C59.999962,25.209854 59.999962,27.835279 59.999962,30.925320 
z"/>
<path fill="#3FED9C" opacity="1.000000" stroke="none" 
	d="
M51.961029,96.125610 
	C52.069118,97.868874 51.944424,99.649750 50.428097,99.548386 
	C49.049038,99.456200 48.470753,97.666382 49.322910,96.371613 
	C50.120369,95.159958 49.845547,93.818474 50.248745,92.048172 
	C50.959854,93.607887 51.446522,94.675323 51.961029,96.125610 
z"/>
<path fill="#3FED9C" opacity="1.000000" stroke="none" 
	d="
M27.998898,67.932281 
	C27.841034,69.239067 28.399223,70.553383 27.083569,70.771500 
	C25.892523,70.968948 26.008780,69.772125 26.036354,69.039963 
	C26.096746,67.436424 25.604841,65.765488 26.559036,64.094315 
	C28.774015,64.522346 27.670340,66.338348 27.998898,67.932281 
z"/>
<path fill="#3FED9C" opacity="1.000000" stroke="none" 
	d="
M42.153088,36.262642 
	C44.337975,34.538750 45.405319,35.991676 44.604633,37.643383 
	C43.512718,39.895859 44.724419,42.244007 43.517654,44.555256 
	C42.171436,41.939308 44.027466,38.968452 42.153088,36.262642 
z"/>
<path fill="#3FED9C" opacity="1.000000" stroke="none" 
	d="
M26.009014,48.992424 
	C26.221142,47.076485 27.042101,46.328125 27.814350,48.008377 
	C28.364147,49.204617 27.921026,50.857208 27.921026,52.315971 
	C25.595049,52.317432 26.116959,50.661682 26.009014,48.992424 
z"/>
<path fill="#3FED9C" opacity="1.000000" stroke="none" 
	d="
M101.104782,46.107349 
	C100.870689,43.925598 98.591011,41.575665 101.759033,39.676182 
	C102.182472,41.617615 102.126961,43.642921 101.383408,45.862606 
	C101.034973,46.049370 101.084061,46.085144 101.104782,46.107349 
z"/>
<path fill="#3FED9C" opacity="1.000000" stroke="none" 
	d="
M77.730469,35.633476 
	C76.840897,36.516251 77.068451,38.286171 75.725128,37.790466 
	C74.657448,37.396484 74.648445,35.735184 75.463097,35.397079 
	C76.959808,34.775906 76.967117,33.466938 77.922676,32.430584 
	C77.922676,33.388371 77.922676,34.346161 77.730469,35.633476 
z"/>
<path fill="#3FED9C" opacity="1.000000" stroke="none" 
	d="
M112.888687,78.112366 
	C113.852669,78.179024 114.181213,78.782532 113.789856,79.426765 
	C113.405487,80.059509 113.040497,79.423546 112.538925,78.923706 
	C112.467056,78.571526 112.581100,78.434349 112.888687,78.112366 
z"/>
<path fill="#070808" opacity="1.000000" stroke="none" 
	d="
M92.893097,84.883369 
	C94.167625,89.611435 94.859932,94.187012 99.926811,96.602341 
	C102.416100,97.788963 102.773376,100.151154 100.791130,102.845978 
	C97.069717,107.905151 93.004890,112.604980 88.525330,116.996231 
	C83.715721,121.711006 77.757309,121.215096 71.843750,120.966629 
	C68.383812,120.821243 70.961800,117.619286 69.363403,116.163536 
	C66.869324,118.805939 65.842354,118.300537 65.943962,114.482048 
	C66.105209,108.422623 65.095901,102.238472 65.595673,96.331238 
	C66.380287,87.057091 74.091408,82.071320 80.994293,77.051285 
	C82.763634,75.764557 84.261993,74.364372 85.388458,72.526321 
	C88.154861,75.025581 86.858826,77.378258 84.942337,79.481972 
	C82.590454,82.063614 80.012337,84.437920 77.565178,86.934357 
	C74.720200,89.836639 73.733009,93.375992 76.060829,96.738350 
	C78.075218,99.647987 80.957390,101.906288 85.152573,100.437706 
	C89.905907,98.773750 86.968758,103.316849 89.296600,105.167175 
	C90.702019,103.465752 92.216309,101.541992 93.827621,99.703270 
	C96.194527,97.002296 95.138000,94.235397 93.399483,92.091537 
	C91.139977,89.305214 90.150215,92.709656 88.899681,93.722115 
	C87.099884,95.179283 85.267471,95.840614 83.681175,94.021240 
	C82.103806,92.212082 83.138496,90.496407 84.597687,88.798653 
	C86.552986,86.523674 89.883606,87.003227 92.032928,84.577988 
	C92.429367,84.466675 92.567307,84.579765 92.893097,84.883369 
z"/>
</svg>